<svg width="256" height="256" viewBox="0 0 256 256" fill="none" xmlns="http://www.w3.org/2000/svg">
  <rect width="256" height="256" rx="60" fill="white" />
  <path d="M72.1713 80.2667H83.8379V206.933H72.1713V80.2667Z" fill="#111111" />
  <path fill-rule="evenodd" clip-rule="evenodd"
    d="M178.366 200.498C183.927 200.616 187.191 199.19 189.112 197.375C191.032 195.56 192.639 192.38 192.834 186.822C193.03 181.202 191.718 173.899 188.543 165.257C182.205 148.01 169.132 127.304 150.541 107.636C132.143 88.1727 111.379 74.5369 93.6026 67.7516C84.6989 64.353 76.9455 62.8254 70.8523 62.8702C64.7261 62.9151 61.1519 64.5098 59.2105 66.3449C57.4273 68.0304 56.0234 70.862 56.1031 76.0403C56.185 81.3642 57.8733 88.3697 61.5231 96.8101C68.7997 113.638 82.8977 133.943 101.684 153.818C120.275 173.486 140.213 187.702 157.077 195.001C165.526 198.657 172.744 200.378 178.366 200.498ZM94.417 160.687C133.004 201.509 178.476 221.189 195.981 204.642C213.486 188.095 196.395 141.589 157.808 100.767C119.221 59.9447 69.8461 42.5311 52.3412 59.0777C34.8363 75.6243 55.8298 119.865 94.417 160.687Z"
    fill="white" />
  <path fill-rule="evenodd" clip-rule="evenodd"
    d="M182.639 189.665C187.316 189.765 189.151 188.562 189.843 187.908C190.536 187.254 191.84 185.489 192.003 180.813C192.17 176.047 191.053 169.411 188.016 161.148C181.963 144.677 169.314 124.534 151.074 105.238C133.124 86.2478 112.974 73.0736 95.9863 66.5895C87.4695 63.3387 80.3487 61.9978 75.0557 62.0367C69.7131 62.0759 67.5358 63.4609 66.8118 64.1452C66.3252 64.6052 65.2044 65.9188 65.2692 70.1301C65.3374 74.5597 66.7752 80.8894 70.2791 88.9923C77.2521 105.118 90.9515 124.944 109.484 144.55C127.725 163.846 147.124 177.608 163.229 184.578C171.308 188.075 177.87 189.564 182.639 189.665ZM98.5837 154.854C137.171 195.676 182.643 215.355 200.148 198.809C217.652 182.262 200.562 135.756 161.975 94.9335C123.387 54.1114 74.0127 36.6978 56.5078 53.2444C39.0029 69.7909 59.9965 114.032 98.5837 154.854Z"
    fill="#111111" />
  <path
    d="M166.338 68.6151C118.753 69.0126 118.417 69.3482 118.02 116.933C117.592 69.3482 117.256 69.0126 69.6713 68.6151C117.256 68.1874 117.592 67.8518 118.02 20.2667C118.417 67.8518 118.753 68.1874 166.338 68.6151Z"
    fill="#F74E28" />
  <path d="M173.005 52.7667H184.671V180.267H173.005V52.7667Z" fill="#111111" />
  <path fill-rule="evenodd" clip-rule="evenodd"
    d="M168.005 52.7667H173.005V180.267H168.005V52.7667Z" fill="white" />
</svg>
  