<svg width="149" height="34" viewBox="0 0 149 34" fill="none" xmlns="http://www.w3.org/2000/svg">
<g clip-path="url(#clip0_476_3790)">
<mask id="mask0_476_3790" style="mask-type:luminance" maskUnits="userSpaceOnUse" x="-1" y="0" width="150" height="34">
<path d="M148.082 0.640991H-0.000976562V33.0453H148.082V0.640991Z" fill="white"/>
</mask>
<g mask="url(#mask0_476_3790)">
<path d="M106.13 16.0587L107.116 9.42537C104.965 8.26007 101.962 7.27405 98.511 7.27405C91.6985 7.27405 87.9785 10.8596 87.9785 15.476C87.9785 20.3613 92.4156 21.7955 95.4633 22.8263C97.3009 23.4986 98.7351 23.9916 98.7351 24.9776C98.7351 25.7844 97.7939 26.5463 95.9115 26.5463C93.1775 26.5463 89.3679 24.9777 86.9028 22.7815L85.8271 30.0422C88.3818 31.9246 92.057 33.0451 95.9563 33.0451C102.724 33.0451 106.578 29.7285 106.578 25.0225C106.578 20.0924 102.41 18.434 99.0488 17.2239C97.1664 16.5516 95.8218 16.1483 95.8218 15.2071C95.8218 14.4003 96.763 13.7728 98.6903 13.7728C101.469 13.7728 104.337 15.0726 106.13 16.0587Z" fill="#FF0000"/>
<path d="M19.8083 7.94646L19.3601 10.0978C18.0603 7.54309 14.2058 7.27417 12.1442 7.27417C5.69019 7.27417 0.0429688 13.4592 0.0429688 21.9301C0.0429688 28.7426 4.16634 33.0453 9.32055 33.0453C12.189 33.0453 14.654 32.3729 16.6709 29.9975L16.1331 32.373H17.2984H24.2454L27.9654 7.90164H19.8083V7.94646ZM13.0405 24.8881C10.2618 24.8881 8.15525 22.7368 8.15525 20.0029C8.15525 17.3137 10.3066 15.1175 13.0405 15.1175C15.7297 15.1175 17.881 17.3137 17.881 20.0029C17.881 22.7368 15.7297 24.8881 13.0405 24.8881Z" fill="#FF0000"/>
<path d="M79.6422 7.94634H78.7907L78.3425 10.0977C77.0427 7.54296 73.1883 7.27405 71.1266 7.27405C64.6726 7.27405 59.0254 13.4591 59.0254 21.9299C59.0254 28.7425 63.1488 33.0451 68.303 33.0451C71.1714 33.0451 73.6365 32.3728 75.6533 29.9974L75.1155 32.3729H76.2808H83.2278L86.9478 7.90152H79.6422V7.94634ZM72.023 24.888C69.2442 24.888 67.1377 22.7367 67.1377 20.0028C67.1377 17.3136 69.289 15.1174 72.023 15.1174C74.7121 15.1174 76.8634 17.3136 76.8634 20.0028C76.9083 22.7367 74.7121 24.888 72.023 24.888Z" fill="#FF0000"/>
<path d="M140.775 7.94634H139.923L139.475 10.0977C138.176 7.54296 134.321 7.27405 132.259 7.27405C125.805 7.27405 120.158 13.4591 120.158 21.9299C120.158 28.7425 124.282 33.0451 129.436 33.0451C132.304 33.0451 134.769 32.3728 136.786 29.9974L136.248 32.3729H137.414H144.361L148.081 7.90152H140.775V7.94634ZM133.156 24.888C130.377 24.888 128.27 22.7367 128.27 20.0028C128.27 17.3136 130.422 15.1174 133.156 15.1174C135.845 15.1174 137.996 17.3136 137.996 20.0028C137.996 22.7367 135.845 24.888 133.156 24.888Z" fill="#FF0000"/>
<path d="M35.808 8.84289C38.0606 8.84289 39.8866 7.01687 39.8866 4.76434C39.8866 2.51182 38.0606 0.685791 35.808 0.685791C33.5555 0.685791 31.7295 2.51182 31.7295 4.76434C31.7295 7.01687 33.5555 8.84289 35.808 8.84289Z" fill="#FF0000"/>
<path d="M35.764 10.4114C34.016 10.4114 32.4473 9.60465 31.4165 8.39453L27.7861 32.3729H35.9432L39.484 9.06682C38.4531 9.91838 37.1982 10.4114 35.764 10.4114Z" fill="#FF0000"/>
<path d="M54.8569 16.014C57.1095 16.014 58.9354 14.188 58.9354 11.9355C58.9354 9.68296 57.1095 7.85693 54.8569 7.85693C52.6043 7.85693 50.7783 9.68296 50.7783 11.9355C50.7783 14.188 52.6043 16.014 54.8569 16.014Z" fill="#FF0000"/>
<path d="M49.1652 11.9356C49.1652 10.3669 49.7927 8.9327 50.8235 7.90186H43.1595L39.4395 32.3732H47.5966L50.1961 15.1626C49.5238 14.2662 49.1652 13.1457 49.1652 11.9356Z" fill="#FF0000"/>
<path d="M115.901 8.79797C118.153 8.79797 119.979 6.97194 119.979 4.71942C119.979 2.4669 118.153 0.640869 115.901 0.640869C113.648 0.640869 111.822 2.4669 111.822 4.71942C111.822 6.97194 113.648 8.79797 115.901 8.79797Z" fill="#FF0000"/>
<path d="M115.901 10.4113C114.108 10.4113 112.495 9.55977 111.419 8.26001L107.744 32.3728H115.901L119.442 9.15639C118.456 9.96314 117.246 10.4113 115.901 10.4113Z" fill="#FF0000"/>
</g>
</g>
<defs>
<clipPath id="clip0_476_3790">
<rect width="148.352" height="32.718" fill="white" transform="translate(0 0.640991)"/>
</clipPath>
</defs>
</svg>
