<svg width="110" height="15" viewBox="0 0 110 15" fill="none" xmlns="http://www.w3.org/2000/svg">
  <path
    d="M0.666667 13C0.666667 13.7364 1.26362 14.3333 2 14.3333C2.73638 14.3333 3.33333 13.7364 3.33333 13C3.33333 12.2636 2.73638 11.6667 2 11.6667C1.26362 11.6667 0.666667 12.2636 0.666667 13ZM106.667 13C106.667 13.7364 107.264 14.3333 108 14.3333C108.736 14.3333 109.333 13.7364 109.333 13C109.333 12.2636 108.736 11.6667 108 11.6667C107.264 11.6667 106.667 12.2636 106.667 13ZM4.9044 12.3779C5.03718 12.3401 5.11414 12.2018 5.0763 12.069C5.03845 11.9362 4.90012 11.8592 4.76734 11.8971L4.9044 12.3779ZM10.5521 10.4188C10.4175 10.4497 10.3335 10.5839 10.3645 10.7185C10.3954 10.853 10.5296 10.937 10.6641 10.9061L10.5521 10.4188ZM16.5015 9.6873C16.6371 9.66164 16.7263 9.53085 16.7006 9.39519C16.675 9.25952 16.5442 9.17035 16.4085 9.19602L16.5015 9.6873ZM22.2826 8.18748C22.1461 8.20863 22.0527 8.33637 22.0738 8.47282C22.0949 8.60926 22.2227 8.70273 22.3591 8.68159L22.2826 8.18748ZM28.2543 7.86064C28.3913 7.84365 28.4886 7.7188 28.4716 7.58178C28.4546 7.44476 28.3298 7.34745 28.1928 7.36444L28.2543 7.86064ZM34.1281 6.71564C33.9906 6.72868 33.8897 6.85068 33.9028 6.98813C33.9158 7.12559 34.0378 7.22644 34.1753 7.2134L34.1281 6.71564ZM40.1097 6.73393C40.2475 6.72473 40.3517 6.60558 40.3425 6.46782C40.3333 6.33005 40.2141 6.22584 40.0764 6.23505L40.1097 6.73393ZM46.028 5.91916C45.89 5.92459 45.7826 6.04084 45.788 6.1788C45.7935 6.31676 45.9097 6.4242 46.0477 6.41877L46.028 5.91916ZM52.0008 6.26577C52.1388 6.26411 52.2494 6.15084 52.2477 6.01278C52.2461 5.87472 52.1328 5.76415 51.9948 5.76581L52.0008 6.26577ZM57.9632 5.7757C57.8251 5.77357 57.7115 5.88376 57.7093 6.02182C57.7072 6.15987 57.8174 6.27351 57.9555 6.27564L57.9632 5.7757ZM63.9024 6.4493C64.0403 6.45524 64.157 6.34824 64.1629 6.21029C64.1689 6.07235 64.0619 5.95571 63.9239 5.94976L63.9024 6.4493ZM69.885 6.29042C69.7472 6.2806 69.6276 6.38428 69.6178 6.522C69.608 6.65973 69.7117 6.77933 69.8494 6.78915L69.885 6.29042ZM75.7765 7.29682C75.9139 7.31057 76.0364 7.21035 76.0501 7.07297C76.0639 6.93558 75.9637 6.81306 75.8263 6.7993L75.7765 7.29682ZM81.7559 7.48038C81.619 7.46262 81.4936 7.55921 81.4758 7.69613C81.4581 7.83306 81.5547 7.95846 81.6916 7.97622L81.7559 7.48038ZM87.582 8.82989C87.7183 8.85175 87.8466 8.75894 87.8684 8.62261C87.8903 8.48628 87.7975 8.35805 87.6611 8.3362L87.582 8.82989ZM93.5362 9.37C93.4007 9.34398 93.2696 9.43282 93.2436 9.56842C93.2176 9.70401 93.3064 9.83503 93.442 9.86104L93.5362 9.37ZM99.2735 11.0747C99.4082 11.105 99.542 11.0203 99.5723 10.8856C99.6025 10.7509 99.5178 10.6172 99.3831 10.5869L99.2735 11.0747ZM105.179 11.9869C105.046 11.9523 104.909 12.0326 104.875 12.1663C104.84 12.3 104.921 12.4364 105.054 12.4709L105.179 11.9869ZM2.07744 13.2377C2.94159 12.9562 3.8852 12.6684 4.9044 12.3779L4.76734 11.8971C3.74275 12.1891 2.79316 12.4787 1.92256 12.7623L2.07744 13.2377ZM10.6641 10.9061C12.4726 10.4903 14.4222 10.0807 16.5015 9.6873L16.4085 9.19602C14.3231 9.59057 12.3671 10.0015 10.5521 10.4188L10.6641 10.9061ZM22.3591 8.68159C24.2461 8.38919 26.2133 8.1137 28.2543 7.86064L28.1928 7.36444C26.1468 7.61812 24.1746 7.89431 22.2826 8.18748L22.3591 8.68159ZM34.1753 7.2134C36.1017 7.03062 38.0813 6.86952 40.1097 6.73393L40.0764 6.23505C38.0433 6.37094 36.059 6.53242 34.1281 6.71564L34.1753 7.2134ZM46.0477 6.41877C47.9955 6.34208 49.981 6.29008 52.0008 6.26577L51.9948 5.76581C49.9704 5.79018 47.9803 5.84229 46.028 5.91916L46.0477 6.41877ZM57.9555 6.27564C59.9115 6.30573 61.8948 6.36279 63.9024 6.4493L63.9239 5.94976C61.9116 5.86306 59.9237 5.80586 57.9632 5.7757L57.9555 6.27564ZM69.8494 6.78915C71.8063 6.9287 73.7829 7.0972 75.7765 7.29682L75.8263 6.7993C73.8278 6.59921 71.8466 6.4303 69.885 6.29042L69.8494 6.78915ZM81.6916 7.97622C83.6422 8.22932 85.6064 8.51324 87.582 8.82989L87.6611 8.3362C85.6805 8.01874 83.7114 7.73411 81.7559 7.48038L81.6916 7.97622ZM93.442 9.86104C95.3779 10.2325 97.3224 10.6364 99.2735 11.0747L99.3831 10.5869C97.4268 10.1474 95.4772 9.74237 93.5362 9.37L93.442 9.86104ZM105.054 12.4709C106.013 12.7189 106.973 12.9756 107.933 13.241L108.067 12.759C107.103 12.4929 106.141 12.2356 105.179 11.9869L105.054 12.4709Z"
    fill="#7D89B0" />
  <path
    d="M60.9991 10.5C60.9991 10.6326 60.9464 10.7598 60.8526 10.8536C60.7589 10.9473 60.6317 11 60.4991 11H51.4991C51.3665 11 51.2393 10.9473 51.1455 10.8536C51.0518 10.7598 50.9991 10.6326 50.9991 10.5C50.9991 10.3674 51.0518 10.2402 51.1455 10.1464C51.2393 10.0527 51.3665 10 51.4991 10H60.4991C60.6317 10 60.7589 10.0527 60.8526 10.1464C60.9464 10.2402 60.9991 10.3674 60.9991 10.5ZM62.4991 5.5V7C62.4991 7.13261 62.4464 7.25979 62.3526 7.35355C62.2589 7.44732 62.1317 7.5 61.9991 7.5H50.816C50.2777 7.50247 49.7532 7.33005 49.3214 7.00869C48.8896 6.68734 48.5738 6.23443 48.4216 5.71813L47.5422 2.7875C47.4974 2.63825 47.4881 2.4806 47.5151 2.32711C47.542 2.17363 47.6044 2.02857 47.6974 1.9035C47.7903 1.77843 47.9112 1.67681 48.0504 1.60675C48.1896 1.5367 48.3433 1.50014 48.4991 1.5H48.9991C49.1315 1.50006 49.2585 1.55266 49.3522 1.64625L50.7066 3H52.1122L51.5497 1.31625C51.4996 1.16587 51.4859 1.00573 51.5099 0.849036C51.5338 0.69234 51.5946 0.543577 51.6874 0.415016C51.7801 0.286455 51.902 0.181779 52.0432 0.109621C52.1843 0.0374624 52.3406 -0.000110587 52.4991 2.44484e-07H52.9991C53.0648 -5.1403e-05 53.1298 0.0128379 53.1905 0.0379319C53.2512 0.063026 53.3064 0.0998331 53.3528 0.14625L56.2066 3H59.9991C60.6621 3 61.298 3.26339 61.7669 3.73223C62.2357 4.20107 62.4991 4.83696 62.4991 5.5ZM61.4991 5.5C61.4991 5.10218 61.3411 4.72064 61.0598 4.43934C60.7785 4.15804 60.3969 4 59.9991 4H55.9991C55.8667 3.99994 55.7397 3.94734 55.646 3.85375L52.7922 1H52.4991L53.2797 3.34188C53.3048 3.41699 53.3116 3.49698 53.2997 3.57525C53.2878 3.65353 53.2574 3.72785 53.2112 3.79211C53.1649 3.85637 53.1041 3.90873 53.0336 3.94487C52.9632 3.98101 52.8851 3.99991 52.806 4H50.4991C50.4334 4.00005 50.3684 3.98716 50.3077 3.96207C50.247 3.93697 50.1918 3.90017 50.1453 3.85375L48.7922 2.5H48.4991L49.3785 5.43125C49.4699 5.74111 49.6595 6.01287 49.9188 6.20563C50.178 6.39839 50.4929 6.50169 50.816 6.5H61.4991V5.5Z"
    fill="black" />
</svg>
  