<svg width="16" height="16" viewBox="0 0 16 16" fill="none" xmlns="http://www.w3.org/2000/svg">
  <path
    d="M6.01983 14.4598L7.57316 13.1532C7.8065 12.9532 8.19316 12.9532 8.4265 13.1532L9.97983 14.4598C10.3398 14.6398 10.7798 14.4598 10.9132 14.0732L11.2065 13.1865C11.2798 12.9732 11.2065 12.6598 11.0465 12.4998L9.53316 10.9798C9.41983 10.8732 9.33316 10.6598 9.33316 10.5065V8.60651C9.33316 8.32651 9.53983 8.19318 9.79983 8.29984L13.0732 9.71318C13.5865 9.93318 14.0065 9.65984 14.0065 9.09984V8.23984C14.0065 7.79318 13.6732 7.27984 13.2598 7.10651L9.53316 5.49984C9.4265 5.45318 9.33316 5.31318 9.33316 5.19318V3.19318C9.33316 2.56651 8.87316 1.82651 8.31316 1.53984C8.11316 1.43984 7.87983 1.43984 7.67983 1.53984C7.11983 1.82651 6.65983 2.57318 6.65983 3.19984V5.19984C6.65983 5.31984 6.5665 5.45984 6.45983 5.50651L2.73983 7.11318C2.3265 7.27984 1.99316 7.79318 1.99316 8.23984V9.09984C1.99316 9.65984 2.41316 9.93318 2.9265 9.71318L6.19983 8.29984C6.45316 8.18651 6.6665 8.32651 6.6665 8.60651V10.5065C6.6665 10.6598 6.57983 10.8732 6.47316 10.9798L4.95983 12.4998C4.79983 12.6598 4.7265 12.9665 4.79983 13.1865L5.09316 14.0732C5.21316 14.4598 5.65316 14.6465 6.01983 14.4598Z"
    stroke="currentColor" strokeLinecap="round" strokeLinejoin="round" />
</svg>
  