<svg width="18" height="19" viewBox="0 0 18 19" fill="none" xmlns="http://www.w3.org/2000/svg">
  <path
    d="M16.1874 8.52088L16.1883 8.52129C16.3234 8.57916 16.4865 8.71534 16.6188 8.91819C16.751 9.12098 16.8115 9.32761 16.8115 9.47642V10.6764C16.8115 10.7849 16.791 10.852 16.7743 10.8875C16.7586 10.9209 16.7445 10.9309 16.7401 10.9337C16.7357 10.9366 16.7197 10.9462 16.6801 10.9473C16.6383 10.9485 16.5658 10.9399 16.4629 10.8956C16.4629 10.8956 16.4628 10.8956 16.4628 10.8956L11.9087 8.93213L11.9004 8.92855L11.8919 8.92519C11.5695 8.7962 11.1601 8.76781 10.8053 9.00087C10.446 9.2369 10.3115 9.62977 10.3115 9.98551V12.631C10.3115 12.8479 10.3686 13.0645 10.4407 13.2405C10.5106 13.4111 10.6227 13.6126 10.789 13.7728L12.8911 15.8839C12.8921 15.8853 12.8982 15.8932 12.9066 15.9099C12.9184 15.9333 12.9303 15.9651 12.9389 16.0023C12.9474 16.0395 12.9507 16.0745 12.9503 16.1031C12.9499 16.1302 12.9463 16.1429 12.9463 16.1429L12.946 16.1441L12.5385 17.3757C12.5383 17.3763 12.5381 17.3768 12.5379 17.3773C12.4954 17.4999 12.3684 17.5661 12.2476 17.5382L10.1709 15.793C9.58897 15.2951 8.67935 15.2951 8.09739 15.7931L6.01628 17.5419C5.90299 17.57 5.78787 17.505 5.75451 17.3956L5.75217 17.388L5.74967 17.3804L5.34198 16.1484C5.3419 16.1481 5.34182 16.1478 5.34174 16.1476C5.33748 16.1333 5.32936 16.0785 5.34748 15.9999C5.35574 15.964 5.36731 15.9334 5.37879 15.9109C5.38777 15.8933 5.39417 15.8854 5.39483 15.8846L7.50266 13.7676C7.50291 13.7674 7.50316 13.7671 7.50341 13.7669C7.66285 13.6072 7.77175 13.4059 7.83996 13.2353C7.90901 13.0627 7.966 12.8474 7.966 12.631V10.9946V9.98551C7.966 9.62383 7.82534 9.23289 7.47006 8.99833C7.11455 8.76363 6.69987 8.78831 6.36789 8.93252C6.36735 8.93275 6.36682 8.93299 6.36628 8.93322L1.81464 10.8956C1.71174 10.9399 1.63914 10.9485 1.59737 10.9473C1.55776 10.9462 1.54178 10.9366 1.53732 10.9337C1.53294 10.9309 1.51889 10.9209 1.50313 10.8875C1.48642 10.852 1.466 10.7849 1.466 10.6764V9.47642C1.466 9.3275 1.52651 9.1212 1.65801 8.92037C1.78979 8.7191 1.95057 8.58763 2.08065 8.53395L2.08068 8.53402L2.08979 8.5301L7.27161 6.30283L7.28968 6.29506L7.30728 6.28626C7.51159 6.1841 7.66477 6.02327 7.76571 5.86727C7.86591 5.71242 7.95691 5.49662 7.95691 5.24915V2.46733C7.95691 2.1873 8.06544 1.83002 8.27557 1.48752C8.48418 1.14749 8.75261 0.88781 9.00166 0.757279C9.08109 0.718972 9.17956 0.719164 9.2588 0.757859C9.51371 0.889328 9.78433 1.14835 9.99323 1.48552C10.2033 1.82463 10.3115 2.17882 10.3115 2.45824V5.24006C10.3115 5.48753 10.4025 5.70333 10.5027 5.85818C10.6036 6.01418 10.7568 6.17501 10.9611 6.27717L10.9804 6.28684L11.0003 6.29526L11.9419 6.6936L11.9458 6.69526L16.1874 8.52088Z"
    fill="currentColor" stroke="currentColor" stroke-width="1.36364" />
</svg>
  