<svg width="16" height="15" viewBox="0 0 16 15" fill="none" xmlns="http://www.w3.org/2000/svg">
  <path
    d="M14.4189 2.74996H11.5023V2.16663C11.5023 1.7025 11.3179 1.25738 10.9897 0.929189C10.6615 0.601001 10.2164 0.416626 9.75228 0.416626H6.25228C5.78815 0.416626 5.34303 0.601001 5.01484 0.929189C4.68665 1.25738 4.50228 1.7025 4.50228 2.16663V2.74996H1.58561C1.27619 2.74996 0.979446 2.87288 0.760654 3.09167C0.541862 3.31046 0.418945 3.60721 0.418945 3.91663V13.25C0.418945 13.5594 0.541862 13.8561 0.760654 14.0749C0.979446 14.2937 1.27619 14.4166 1.58561 14.4166H14.4189C14.7284 14.4166 15.0251 14.2937 15.2439 14.0749C15.4627 13.8561 15.5856 13.5594 15.5856 13.25V3.91663C15.5856 3.60721 15.4627 3.31046 15.2439 3.09167C15.0251 2.87288 14.7284 2.74996 14.4189 2.74996ZM5.66895 2.16663C5.66895 2.01192 5.7304 1.86354 5.8398 1.75415C5.9492 1.64475 6.09757 1.58329 6.25228 1.58329H9.75228C9.90699 1.58329 10.0554 1.64475 10.1648 1.75415C10.2742 1.86354 10.3356 2.01192 10.3356 2.16663V2.74996H5.66895V2.16663ZM10.3356 3.91663V13.25H5.66895V3.91663H10.3356ZM1.58561 3.91663H4.50228V13.25H1.58561V3.91663ZM14.4189 13.25H11.5023V3.91663H14.4189V13.25Z"
    fill="white" />
</svg>
  