<svg width="24" height="24" viewBox="0 0 24 24" fill="none" xmlns="http://www.w3.org/2000/svg">
<rect width="24" height="24" rx="12" fill="#111322"/>
<path d="M16.8125 8.0625H14.625V7.625C14.625 7.2769 14.4867 6.94306 14.2406 6.69692C13.9944 6.45078 13.6606 6.3125 13.3125 6.3125H10.6875C10.3394 6.3125 10.0056 6.45078 9.75942 6.69692C9.51328 6.94306 9.375 7.2769 9.375 7.625V8.0625H7.1875C6.95544 8.0625 6.73288 8.15469 6.56878 8.31878C6.40469 8.48288 6.3125 8.70544 6.3125 8.9375V15.9375C6.3125 16.1696 6.40469 16.3921 6.56878 16.5562C6.73288 16.7203 6.95544 16.8125 7.1875 16.8125H16.8125C17.0446 16.8125 17.2671 16.7203 17.4312 16.5562C17.5953 16.3921 17.6875 16.1696 17.6875 15.9375V8.9375C17.6875 8.70544 17.5953 8.48288 17.4312 8.31878C17.2671 8.15469 17.0446 8.0625 16.8125 8.0625ZM10.25 7.625C10.25 7.50897 10.2961 7.39769 10.3781 7.31564C10.4602 7.23359 10.5715 7.1875 10.6875 7.1875H13.3125C13.4285 7.1875 13.5398 7.23359 13.6219 7.31564C13.7039 7.39769 13.75 7.50897 13.75 7.625V8.0625H10.25V7.625ZM13.75 8.9375V15.9375H10.25V8.9375H13.75ZM7.1875 8.9375H9.375V15.9375H7.1875V8.9375ZM16.8125 15.9375H14.625V8.9375H16.8125V15.9375Z" fill="#F74E28"/>
</svg>
