<svg width="90" height="24" viewBox="0 0 90 24" fill="none" xmlns="http://www.w3.org/2000/svg">
<g id="Bank Mandiri svg" clip-path="url(#clip0_1888_20497)">
<g id="layer1">
<g id="g20360">
<g id="g19736">
<path id="path19738" d="M0.295909 16.4246C0.295909 15.2531 0.270542 14.2653 0.20459 13.3878H2.65498L2.77167 14.8993H2.8427C3.39568 14.1045 4.41541 13.1581 6.31282 13.1581C7.79422 13.1581 8.95093 13.9116 9.43289 15.0417H9.47855C9.86919 14.4767 10.3309 14.0586 10.8636 13.7646C11.4876 13.3649 12.208 13.1535 13.1313 13.1535C15.0034 13.1535 16.9008 14.3067 16.9008 17.5731V23.5823H14.1257V17.9499C14.1257 16.2546 13.4763 15.2485 12.1116 15.2485C11.1426 15.2485 10.4222 15.8779 10.1229 16.6084C10.0518 16.8564 9.98588 17.1734 9.98588 17.4629V23.5777H7.21079V17.6696C7.21079 16.25 6.58678 15.2439 5.26772 15.2439C4.20741 15.2439 3.487 15.9973 3.23334 16.7094C3.11665 16.9667 3.07099 17.2607 3.07099 17.5548V23.5869H0.295909V16.4246Z" fill="#003D79"/>
</g>
<g id="g19740">
<path id="path19742" d="M27.7093 21.137C27.7093 22.0559 27.7549 22.9563 27.8716 23.5857H25.3045L25.1219 22.4556H25.0509C24.3558 23.2503 23.1788 23.8154 21.7228 23.8154C19.455 23.8154 18.1816 22.3315 18.1816 20.7787C18.1816 18.2013 20.698 16.9058 24.8632 16.9242V16.7588C24.8632 16.088 24.5588 14.9762 22.5751 14.9762C21.4641 14.9762 20.3073 15.2932 19.5464 15.7297L18.9934 14.0528C19.8254 13.5934 21.2814 13.1523 23.0621 13.1523C26.6692 13.1523 27.7143 15.2289 27.7143 17.4479V21.137H27.7093ZM24.9342 18.6056C22.9201 18.5643 21.0024 18.9594 21.0024 20.5076C21.0024 21.5137 21.7228 21.9732 22.6208 21.9732C23.7521 21.9732 24.5841 21.3024 24.8378 20.5673C24.9088 20.379 24.9291 20.1722 24.9291 20.0023V18.6056H24.9342Z" fill="#003D79"/>
</g>
<g id="g19744">
<path id="path19746" d="M29.6738 16.4246C29.6738 15.2531 29.6485 14.2653 29.5825 13.3878H32.0786L32.2156 14.9177H32.2866C32.7736 14.1229 33.9963 13.1535 35.8683 13.1535C37.8367 13.1535 39.8711 14.3067 39.8711 17.5318V23.5823H37.025V17.8258C37.025 16.3603 36.4213 15.2485 34.874 15.2485C33.7426 15.2485 32.9563 15.9835 32.6519 16.7554C32.5656 16.9897 32.5402 17.3067 32.5402 17.5961V23.5869H29.6738V16.4246Z" fill="#003D79"/>
</g>
<g id="g19748">
<path id="path19750" d="M52.2016 9.29156V20.7173C52.2016 21.7648 52.2473 22.8949 52.2929 23.5887H49.7512L49.6345 21.9761H49.5889C48.9192 23.1063 47.5545 23.8184 45.9107 23.8184C43.227 23.8184 41.1013 21.7464 41.1013 18.604C41.0759 15.1905 43.435 13.1553 46.139 13.1553C47.6864 13.1553 48.7974 13.7433 49.3048 14.4968H49.3504L49.3606 9.29156H52.2016ZM49.3606 17.6392C49.3606 17.4324 49.3352 17.1798 49.2896 16.9684C49.0359 15.9669 48.1328 15.1491 46.8392 15.1491C45.0128 15.1491 43.993 16.6147 43.993 18.5213C43.993 20.3819 45.0128 21.7464 46.8189 21.7464C47.9705 21.7464 48.9902 21.0343 49.2693 19.9225C49.3403 19.6928 49.3606 19.4401 49.3606 19.169V17.6392Z" fill="#003D79"/>
</g>
<path id="path19752" d="M54.2129 13.3867H57.0823V23.5858H54.2129V13.3867Z" fill="#003D79"/>
<g id="g19754">
<path id="path19756" d="M59.0923 16.6763C59.0923 15.2934 59.0669 14.3103 59.001 13.3869H61.4767L61.5681 15.3302H61.6594C62.2124 13.8876 63.5314 13.3869 64.7389 13.3869C65.0128 13.3869 65.1752 13.3455 65.4085 13.3869V15.6518C65.1802 15.6104 64.9266 15.5691 64.5765 15.5691C63.2118 15.5691 62.2834 16.3639 62.0297 17.5124C61.9841 17.7421 61.9384 18.0178 61.9384 18.3118V23.5859H59.0923V16.6763Z" fill="#003D79"/>
</g>
<path id="path19758" d="M66.7256 13.3867H69.591V23.5858H66.7256V13.3867Z" fill="#003D79"/>
<g id="g19760">
<g id="g19762">
<g id="g19768">
<g id="g19770">
<path id="path19788" d="M66.1402 1.04346C64.4153 1.94851 58.789 4.86122 58.789 4.86122C56.6786 5.65142 55.0602 4.69125 54.5376 3.98374C54.5123 3.95618 54.492 3.92402 54.4767 3.90105L54.4057 3.79537L54.0506 3.26705C53.8984 3.05113 53.731 2.826 53.5331 2.59629C53.3606 2.39415 53.1678 2.19661 52.9598 2.00365C51.6053 0.763225 49.4339 -0.10968 45.8217 1.44775C43.6351 2.57792 38.5517 5.21038 38.5517 5.21038C36.4615 6.29461 34.833 7.13534 34.833 7.13534L36.7558 9.27625C37.5675 9.97456 39.0895 11.1231 41.4435 10.1537C41.4435 10.1537 47.9474 6.74484 47.9728 6.73565C53.5331 3.97455 56.2778 6.61161 57.4852 8.37118C57.5258 8.42631 57.5613 8.48603 57.6019 8.53656L57.607 8.54116C57.6222 8.56413 57.6323 8.58251 57.6425 8.60089L57.7795 8.80303C58.368 9.6162 59.3014 10.1399 60.4125 10.1124C61.0264 10.1032 61.4424 9.91943 62.0461 9.61621L68.337 6.313C68.342 6.313 68.342 6.3084 68.3522 6.3084C73.9784 3.51054 76.7687 6.32217 77.961 8.08175C78.0523 8.23335 78.1588 8.38037 78.2654 8.5136C78.8539 9.23948 79.6707 9.71268 80.7005 9.68971C81.3804 9.67593 82.1464 9.3084 82.2631 9.23949L89.8071 5.29767C89.8071 5.29767 89.0359 4.24561 87.448 2.60089C86.0275 1.13535 84.5207 1.79691 83.3234 2.33902C82.8212 2.56413 79.1786 4.43396 79.1786 4.43396C77.1848 5.17822 75.6323 4.36505 75.0185 3.68051C74.9576 3.60701 74.9018 3.54271 74.8612 3.4738L74.7191 3.25326C74.501 2.91788 74.2372 2.54117 73.9176 2.16904C73.7451 1.96689 73.5523 1.76476 73.3443 1.5764C72.5072 0.80917 71.3606 0.184348 69.7524 0.184348C68.7327 0.184348 67.5455 0.427837 66.1402 1.04346Z" fill="#FFB700"/>
</g>
</g>
</g>
</g>
</g>
</g>
</g>
<defs>
<clipPath id="clip0_1888_20497">
<rect width="90" height="24" fill="white"/>
</clipPath>
</defs>
</svg>
