<svg width="90" height="24" viewBox="0 0 90 24" fill="none" xmlns="http://www.w3.org/2000/svg">
<g id="Bank Central Asia svg">
<path id="path20" d="M11.2982 18.2166C11.2982 17.26 11.3086 14.7032 11.285 14.3882C11.3056 10.5836 8.53581 7.89987 6.78598 8.10909C5.57517 8.21403 4.56041 8.70712 4.01555 10.1256C3.51056 11.4476 3.96204 13.206 5.64103 13.6186C7.43635 14.0617 8.48468 14.4304 9.24337 14.9505C10.173 15.5873 10.9319 16.8039 10.952 18.2181" fill="#0060AF"/>
<path id="path22" d="M12.0148 24C8.84922 24 5.59589 23.2213 2.34689 21.6812L2.26717 21.6421L2.22904 21.5609C0.771033 18.4872 0 15.1254 0 11.8362C0 8.55202 0.739403 5.33403 2.19849 2.26447L2.23857 2.1829L2.31981 2.14222C5.3253 0.720277 8.55848 0 11.9325 0C15.0755 0 18.4322 0.801846 21.6381 2.32289L21.7204 2.35945L21.7583 2.44254C23.2443 5.57289 24.0279 8.9339 24.0279 12.1686C24.0279 15.3907 23.2755 18.6115 21.7878 21.7399L21.7486 21.8221L21.6658 21.8602C18.7063 23.2594 15.3687 24 12.0148 24ZM2.64759 21.2598C5.80387 22.7425 8.95169 23.4913 12.0148 23.4913C15.2627 23.4913 18.4929 22.7823 21.3681 21.4383C22.7965 18.4068 23.5205 15.2868 23.5205 12.1686C23.5205 9.03775 22.7648 5.78104 21.3354 2.74285C18.2242 1.28217 14.975 0.507591 11.9325 0.507591C8.66594 0.507591 5.53501 1.19952 2.6203 2.56457C1.22122 5.53979 0.509112 8.65738 0.509112 11.8362C0.509112 15.0211 1.24916 18.2791 2.64759 21.2598Z" fill="#0060AF"/>
<path id="path24" d="M10.5477 18.2184C10.5535 16.9922 9.8683 15.908 8.9727 15.3254C8.17827 14.8104 7.11174 14.472 5.39116 14.0363C4.8593 13.9004 4.30296 13.5986 4.13073 13.2139C3.67513 13.6723 3.59237 14.7031 3.67253 15.3055C3.76569 16.0026 4.58135 17.1515 5.8095 17.1965C6.55952 17.2266 7.50776 17.0353 7.9625 16.9388C8.74696 16.7696 9.98811 17.2603 10.1857 18.2169" fill="#0060AF"/>
<path id="path26" d="M11.9323 2.17969C9.84992 2.17969 8.05114 3.55122 8.05763 5.92452C8.06414 7.92027 9.67119 8.98868 10.2446 9.7518C11.1112 10.9018 11.5802 12.2629 11.629 14.3456C11.6669 16.0032 11.665 17.64 11.6734 18.2201H12.1331C12.1251 17.6132 12.1043 15.8756 12.1281 14.2944C12.1593 12.211 12.6453 10.9018 13.5123 9.7518C14.0907 8.98868 15.6965 7.92027 15.6999 5.92452C15.7077 3.55122 13.91 2.17969 11.8294 2.17969" fill="#0060AF"/>
<path id="path28" d="M12.461 18.2166C12.461 17.26 12.4502 14.7032 12.4734 14.3882C12.453 10.5836 15.2211 7.89987 16.9724 8.10909C18.1832 8.21403 19.1969 8.70712 19.7433 10.1256C20.2478 11.4476 19.7937 13.206 18.1167 13.6186C16.3205 14.0617 15.2735 14.4304 14.5129 14.9505C13.5843 15.5873 12.8785 16.8039 12.8568 18.2181" fill="#0060AF"/>
<path id="path30" d="M13.211 18.2184C13.2045 16.9922 13.8895 15.908 14.7825 15.3254C15.5802 14.8104 16.648 14.472 18.3671 14.0363C18.9 13.9004 19.4557 13.5986 19.6249 13.2139C20.0827 13.6723 20.1652 14.7031 20.0851 15.3055C19.99 16.0026 19.1765 17.1515 17.9505 17.1965C17.2007 17.2266 16.2475 17.0353 15.7947 16.9388C15.0132 16.7696 13.7686 17.2603 13.5702 18.2169" fill="#0060AF"/>
<path id="path32" d="M13.8534 22.1769L13.5869 20.2351L14.2301 20.1377C14.3868 20.1163 14.5774 20.1435 14.6537 20.2416C14.7379 20.3439 14.7637 20.4285 14.78 20.5626C14.8042 20.7286 14.7561 20.9205 14.569 21.0161V21.022C14.778 21.022 14.9043 21.1719 14.9409 21.4251C14.9463 21.4785 14.9622 21.6077 14.9463 21.7154C14.9039 21.9718 14.7507 22.0542 14.4923 22.0904L13.8534 22.1769ZM14.2674 21.8292C14.3436 21.8184 14.421 21.8143 14.4814 21.7758C14.5739 21.7154 14.5655 21.5863 14.5527 21.4904C14.5204 21.2797 14.4654 21.1996 14.2416 21.2327L14.101 21.2544L14.19 21.8401L14.2674 21.8292ZM14.1326 20.932C14.2178 20.9182 14.3332 20.908 14.3813 20.8273C14.4065 20.7734 14.4388 20.7305 14.4175 20.6107C14.3913 20.4685 14.3441 20.3805 14.1634 20.4146L13.9951 20.4417L14.0614 20.9393" fill="#0060AF"/>
<path id="path34" d="M16.6397 21.0088C16.6447 21.0449 16.6505 21.0851 16.6527 21.1213C16.7047 21.4755 16.6397 21.7686 16.2411 21.8493C15.6518 21.9627 15.5389 21.597 15.4351 21.0851L15.3799 20.8082C15.2987 20.3183 15.2638 19.9475 15.8383 19.8332C16.1622 19.7742 16.3762 19.9029 16.4653 20.2249C16.4791 20.2729 16.4965 20.3205 16.503 20.3687L16.1505 20.4415C16.1098 20.3205 16.0558 20.1044 15.8972 20.1225C15.6126 20.1567 15.7066 20.5105 15.7358 20.6582L15.8418 21.1899C15.8736 21.3506 15.9369 21.6074 16.1832 21.5579C16.3832 21.5179 16.2961 21.2067 16.2783 21.0793" fill="#0060AF"/>
<path id="path36" d="M17.205 21.5963L17.083 19.5867L17.5566 19.4424L18.5495 21.1902L18.1766 21.3016L17.9413 20.8574L17.5273 20.9816L17.5809 21.4866L17.205 21.5963ZM17.4927 20.6571L17.7919 20.5705L17.3945 19.7574" fill="#0060AF"/>
<path id="path38" d="M5.50809 20.077C5.65627 19.6032 5.78908 19.2544 6.35451 19.4093C6.65716 19.4937 6.84478 19.627 6.83589 19.9781C6.83443 20.0563 6.8086 20.1359 6.7917 20.2131L6.43965 20.116C6.4858 19.9221 6.51504 19.7683 6.27587 19.6947C5.99944 19.619 5.93206 19.9537 5.89393 20.0982L5.75073 20.6251C5.70523 20.7815 5.65064 21.04 5.89393 21.1067C6.09497 21.1608 6.21695 20.9637 6.28974 20.6759L6.04341 20.6108L6.12855 20.3059L6.70764 20.492L6.43272 21.5074L6.16625 21.4351L6.22626 21.2205H6.21867C6.09605 21.396 5.94635 21.4144 5.81528 21.3893C5.2362 21.2328 5.29664 20.8549 5.43486 20.3499" fill="#0060AF"/>
<path id="path40" d="M7.66363 20.9347L7.48924 21.7608L7.09668 21.676L7.51502 19.7471L8.18423 19.8981C8.57592 19.9825 8.69421 20.1567 8.63875 20.5152C8.60711 20.7209 8.50551 20.9427 8.25745 20.9248L8.25485 20.9214C8.46456 20.9947 8.48233 21.1003 8.44572 21.2829C8.42991 21.3606 8.32093 21.8321 8.3961 21.9082L8.3987 21.966L7.9925 21.8602C7.9756 21.7295 8.03301 21.4945 8.05576 21.3645C8.07872 21.2494 8.11533 21.0871 7.99835 21.0261C7.90671 20.9774 7.87269 20.9798 7.76914 20.956L7.66363 20.9347ZM7.73058 20.6359L7.99488 20.7071C8.15541 20.7302 8.24467 20.6472 8.2763 20.4535C8.3049 20.2759 8.26785 20.2064 8.12378 20.172L7.84041 20.1147" fill="#0060AF"/>
<path id="path42" d="M10.1813 20.1785L10.5695 20.2235L10.4023 21.5795C10.321 22.0094 10.1547 22.1974 9.68107 22.1385C9.19926 22.0777 9.08487 21.8586 9.11412 21.4252L9.28245 20.0703L9.67371 20.1151L9.50581 21.4397C9.48804 21.5836 9.45468 21.7967 9.71097 21.8224C9.93823 21.8397 9.98979 21.6894 10.0154 21.5024" fill="#0060AF"/>
<path id="path44" d="M10.9976 22.2125L11.1143 20.2734L11.8602 20.3057C12.2127 20.323 12.305 20.6105 12.2939 20.8849C12.2838 21.0517 12.2316 21.238 12.086 21.339C11.9666 21.4249 11.8132 21.4453 11.6709 21.4384L11.4278 21.4249L11.3793 22.2375L10.9976 22.2125ZM11.4389 21.1292L11.6364 21.1402C11.797 21.146 11.9033 21.0826 11.9172 20.8472C11.925 20.6211 11.8394 20.5828 11.6315 20.5738L11.4748 20.5684" fill="#0060AF"/>
<path id="path46" d="M63.6055 4.05354L60.6409 9.42737C59.522 8.51994 58.1556 7.85203 56.4123 7.85203C52.2867 7.85203 50.611 10.9233 50.611 13.0868C50.611 14.6926 51.6639 17.062 55.3347 17.062C56.8755 17.062 59.0659 15.9914 59.6964 15.5044L56.7643 21.739C55.3668 22.0174 54.9077 22.1901 53.7246 22.2266C47.1545 22.4224 44.4995 18.3916 44.5015 14.2726C44.5058 8.82761 49.3532 2.20557 57.3889 2.20557C57.8813 2.20557 58.4836 2.37563 58.9986 2.56409L59.5189 1.89941" fill="#0060AF"/>
<path id="path48" d="M75.8377 2.06836L76.6772 21.6H70.4297L70.426 18.2502H66.1659L64.7638 21.6H57.9883L65.0719 7.65273L63.4745 7.64234L66.5095 2.06836H75.8377ZM70.3855 8.04348L67.9768 13.7246H70.458" fill="#0060AF"/>
<path id="path50" d="M40.5572 2.06824C43.651 2.08555 45.3993 3.76281 45.3993 6.18566C45.3993 8.41919 43.5555 10.3963 41.5314 11.4187C43.6153 12.1837 43.7955 14.0618 43.7955 15.3905C43.7955 18.6004 40.5704 21.5999 36.3781 21.5999H27.2354L30.8017 7.8469L29.3368 7.83846L32.3314 2.06824C32.3314 2.06824 38.0413 2.05093 40.5572 2.06824ZM37.5218 9.98717C38.1617 9.98717 39.2917 9.82534 39.5743 8.58838C39.8838 7.24563 38.8234 7.20949 38.3147 7.20949L36.4971 7.20154L35.8632 9.98724L37.5218 9.98717ZM34.952 13.4386L34.1151 16.6486H36.2553C37.0974 16.6486 38.2449 16.2312 38.5261 15.1866C38.8039 14.139 38.0016 13.4386 37.1626 13.4386" fill="#0060AF"/>
</g>
</svg>
