<svg width="149" height="32" viewBox="0 0 149 32" fill="none" xmlns="http://www.w3.org/2000/svg">
<g clip-path="url(#clip0_476_3805)">
<path d="M21.6922 3.30478C21.77 2.6817 21.77 2.2144 20.8369 1.98074C19.9039 1.74709 17.6491 1.35767 14.3057 1.35767C10.1071 1.35767 3.49813 2.83747 1.24331 13.1182C-1.01151 23.399 -0.38949 26.8259 4.0424 29.8634C8.47429 32.9009 15.7053 31.0317 16.094 30.8759C16.4828 30.7202 16.7938 30.4865 16.9493 29.9413C17.1048 29.3961 17.8823 25.2682 17.8823 24.8788C17.9601 24.4115 17.7268 24.1 17.1048 24.1C16.5605 24.1779 13.9947 24.4894 11.7399 24.4894C9.48507 24.4894 8.00777 23.4769 8.24103 21.2182C8.47429 18.9596 8.9408 16 9.25181 14.2086C9.64057 12.4173 10.8846 8.52305 13.4504 8.44517C16.0163 8.36728 18.8931 8.67882 19.3596 8.7567C19.8261 8.83459 20.5259 8.7567 20.6814 8.21151C20.9147 7.66632 21.6922 3.6942 21.6922 3.30478Z" fill="#008644"/>
<path d="M33.8994 8.91227C33.9771 8.52285 33.6661 8.13342 33.2773 8.13342H27.0571C26.5906 8.13342 26.2019 8.52285 26.1241 8.91227L22.3142 30.4084C22.2365 30.7978 22.5475 31.1873 22.9363 31.1873H29.1565C29.5452 31.1873 30.0117 30.7978 30.0895 30.4084L33.8994 8.91227Z" fill="#008644"/>
<path d="M26.824 5.17406C26.7463 5.56348 27.0573 5.9529 27.446 5.9529H33.6662C34.055 5.9529 34.5215 5.64136 34.5992 5.17406L35.299 1.20194C35.3768 0.812519 35.0658 0.423096 34.677 0.423096H28.4568C28.068 0.423096 27.6015 0.734634 27.5238 1.20194L26.824 5.17406Z" fill="#008644"/>
<path d="M66.4003 8.91227C66.4781 8.52285 66.1671 8.13342 65.7783 8.13342H59.5581C59.0916 8.13342 58.7028 8.52285 58.6251 8.91227L54.8152 30.4084C54.7375 30.7978 55.0485 31.1873 55.4372 31.1873H61.6574C62.1239 31.1873 62.5127 30.7978 62.5905 30.4084L66.4003 8.91227Z" fill="#008644"/>
<path d="M81.484 1.2797C81.5618 0.812397 81.2508 0.422974 80.7065 0.422974H74.7973C74.3308 0.422974 73.7866 0.812397 73.7088 1.2797L68.6549 30.1749C68.5771 30.6422 68.8881 31.0316 69.4324 31.0316H75.4193C75.8859 31.0316 76.4301 30.6422 76.5079 30.1749L81.484 1.2797Z" fill="#008644"/>
<path d="M52.871 8.13378H47.7394L48.5169 3.77224C48.5946 3.22705 48.5169 2.75974 47.8949 2.83762L41.8302 3.77224C41.2082 4.00589 40.8194 4.16166 40.7416 4.70686C40.7416 4.70686 37.2428 24.5674 37.165 24.8011C36.6208 27.9165 37.5538 31.577 43.5407 31.577C46.9618 31.577 48.9056 31.1876 48.9056 31.1876C49.2944 31.1876 49.7609 30.8761 49.8387 30.4088L50.4607 26.6703C50.5384 26.2809 50.2274 25.8915 49.8387 25.8915H46.0288C45.64 25.8915 44.707 25.8915 44.8625 24.9569C44.9403 24.2559 46.7286 13.8194 46.7286 13.8194H52.0935C52.56 13.8194 52.9488 13.4299 53.0265 13.0405L53.5708 8.91262C53.6485 8.44532 53.3375 8.13378 52.871 8.13378Z" fill="#008644"/>
<path d="M59.2469 5.17393C59.1691 5.56336 59.4801 5.95278 59.8689 5.95278H66.0891C66.5556 5.95278 66.9443 5.64124 67.0221 5.17393L67.7219 1.20182C67.7996 0.812397 67.4886 0.422974 67.0999 0.422974H60.8797C60.4131 0.422974 60.0244 0.734512 59.9466 1.20182L59.2469 5.17393Z" fill="#008644"/>
<path d="M94.08 8.91215C94.1578 8.52272 93.8468 8.1333 93.458 8.1333H87.2378C86.7713 8.1333 86.3825 8.52272 86.3048 8.91215L82.4949 30.4083C82.4172 30.7977 82.7282 31.1871 83.1169 31.1871H89.3371C89.8036 31.1871 90.1924 30.7977 90.2701 30.4083L94.08 8.91215Z" fill="#008644"/>
<path d="M86.9265 5.17406C86.8488 5.56348 87.1598 5.9529 87.5486 5.9529H93.7688C94.2353 5.9529 94.624 5.64136 94.7018 5.17406L95.4016 1.20194C95.4793 0.812519 95.1683 0.423096 94.7795 0.423096H88.5593C88.0928 0.423096 87.7041 0.734634 87.6263 1.20194L86.9265 5.17406Z" fill="#008644"/>
<path d="M119.738 14.9094C119.816 11.7161 117.872 7.8219 112.196 7.8219H107.764C106.52 7.8219 100.222 7.97767 98.8228 15.844C97.501 23.5546 96.3347 30.4863 96.3347 30.4863C96.257 30.8757 96.4902 31.1873 96.879 31.1873H103.099C103.488 31.1873 103.799 30.8757 103.877 30.4863L106.365 16.4671C106.754 14.52 107.531 13.9748 108.386 13.9748H110.797C111.496 13.9748 112.274 14.5979 111.963 15.9998C111.574 17.7911 109.397 30.4863 109.397 30.4863C109.319 30.8757 109.553 31.1873 109.941 31.1873H116.162C116.55 31.1873 116.861 30.8757 116.939 30.4863C117.095 30.4863 119.738 14.9873 119.738 14.9094Z" fill="#008644"/>
<path d="M132.179 21.4515L132.024 22.1525L132.257 21.841C132.257 21.6852 132.257 21.5294 132.179 21.4515Z" fill="#008644"/>
<path d="M147.651 8.05577H140.42C139.875 8.05577 139.72 8.21153 139.409 8.75673C139.176 9.14615 134.899 14.5202 133.033 16.9346L135.755 1.35769C135.755 1.20192 135.755 1.04615 135.677 0.890381L123.159 28.7731L122.925 30.2529C122.848 30.7202 123.159 31.1875 123.703 31.1875H125.491L132.1 22.1529L132.178 21.4519C132.256 21.5298 132.256 21.6856 132.333 21.8413L138.087 13.975L134.666 27.9942C135.133 29.1625 135.366 30.0192 135.444 30.175C135.599 30.7202 135.832 31.1875 136.61 31.1875H143.763C144.385 31.1875 144.385 30.6423 144.152 30.175C143.841 29.7077 139.176 19.1933 139.176 19.1933C139.176 19.1933 147.884 9.22403 148.273 8.83461C148.584 8.3673 148.273 8.05577 147.651 8.05577Z" fill="#008644"/>
<path d="M130.624 30.2526L132.024 22.1526L125.415 31.1872H129.458C130.08 31.1093 130.546 30.7199 130.624 30.2526Z" fill="#EBE21B"/>
<path d="M132.334 21.7633C132.956 23.4768 133.967 26.1249 134.667 27.9941L138.088 13.9749L132.334 21.7633Z" fill="#EBE21B"/>
<path d="M134.977 0.422974H129.068C128.601 0.422974 128.135 0.812397 127.979 1.35759L127.902 1.98067L123.159 28.773L135.677 0.890281C135.521 0.578743 135.288 0.422974 134.977 0.422974Z" fill="#50B848"/>
</g>
<defs>
<clipPath id="clip0_476_3805">
<rect width="148.352" height="31.1538" fill="white" transform="translate(0 0.423096)"/>
</clipPath>
</defs>
</svg>
