<svg width="32" height="32" viewBox="0 0 32 32" fill="none" xmlns="http://www.w3.org/2000/svg">
<rect width="32" height="32" rx="16" fill="#F74E28"/>
<path d="M11.9157 13.0825V9.58254C11.9157 9.42783 11.9772 9.27946 12.0866 9.17006C12.1959 9.06067 12.3443 8.99921 12.499 8.99921C12.6537 8.99921 12.8021 9.06067 12.9115 9.17006C13.0209 9.27946 13.0824 9.42783 13.0824 9.58254V13.0825C13.0824 13.2373 13.0209 13.3856 12.9115 13.495C12.8021 13.6044 12.6537 13.6659 12.499 13.6659C12.3443 13.6659 12.1959 13.6044 12.0866 13.495C11.9772 13.3856 11.9157 13.2373 11.9157 13.0825ZM22.4157 9.58254V22.9992C22.4157 23.1539 22.3542 23.3023 22.2448 23.4117C22.1354 23.5211 21.9871 23.5825 21.8324 23.5825C21.6777 23.5825 21.5293 23.5211 21.4199 23.4117C21.3105 23.3023 21.249 23.1539 21.249 22.9992V19.4992H17.749C17.5943 19.4992 17.4459 19.4378 17.3365 19.3284C17.2272 19.219 17.1657 19.0706 17.1657 18.9159C17.1928 17.5186 17.3693 16.1281 17.6922 14.7684C18.4053 11.816 19.7572 9.83702 21.6027 9.04661C21.6914 9.00861 21.7881 8.99321 21.8842 9.00179C21.9804 9.01038 22.0728 9.04267 22.1534 9.09578C22.234 9.14889 22.3001 9.22116 22.3459 9.30611C22.3917 9.39106 22.4157 9.48604 22.4157 9.58254ZM21.249 10.5961C18.9033 12.3876 18.4439 16.7517 18.3542 18.3325H21.249V10.5961ZM15.4077 9.48702C15.3963 9.41043 15.3697 9.33687 15.3295 9.27065C15.2894 9.20443 15.2365 9.14686 15.1738 9.10131C15.1112 9.05577 15.0401 9.02314 14.9647 9.00535C14.8894 8.98756 14.8112 8.98495 14.7348 8.99768C14.6584 9.01041 14.5853 9.03823 14.5198 9.0795C14.4543 9.12078 14.3976 9.17469 14.3532 9.23809C14.3087 9.30149 14.2773 9.37311 14.2608 9.44878C14.2443 9.52444 14.243 9.60263 14.2571 9.67879L14.8324 13.1285C14.8324 13.7473 14.5865 14.3408 14.1489 14.7784C13.7114 15.216 13.1179 15.4618 12.499 15.4618C11.8802 15.4618 11.2867 15.216 10.8491 14.7784C10.4115 14.3408 10.1657 13.7473 10.1657 13.1285L10.7403 9.67879C10.7543 9.60263 10.753 9.52444 10.7365 9.44878C10.72 9.37311 10.6886 9.30149 10.6442 9.23809C10.5997 9.17469 10.543 9.12078 10.4775 9.0795C10.412 9.03823 10.3389 9.01041 10.2625 8.99768C10.1861 8.98495 10.108 8.98756 10.0326 9.00535C9.95721 9.02314 9.88614 9.05577 9.82351 9.10131C9.76088 9.14686 9.70794 9.20443 9.66779 9.27065C9.62764 9.33687 9.60108 9.41043 9.58965 9.48702L9.00632 12.987C9.00133 13.0186 8.99889 13.0506 8.99903 13.0825C9.00019 13.9093 9.29355 14.709 9.82727 15.3404C10.361 15.9718 11.1007 16.3942 11.9157 16.533V22.9992C11.9157 23.1539 11.9772 23.3023 12.0866 23.4117C12.1959 23.5211 12.3443 23.5825 12.499 23.5825C12.6537 23.5825 12.8021 23.5211 12.9115 23.4117C13.0209 23.3023 13.0824 23.1539 13.0824 22.9992V16.533C13.8974 16.3942 14.6371 15.9718 15.1708 15.3404C15.7045 14.709 15.9979 13.9093 15.999 13.0825C15.9989 13.0505 15.9962 13.0186 15.991 12.987L15.4077 9.48702Z" fill="white"/>
</svg>
