<svg width="16" height="16" viewBox="0 0 16 16" fill="none" xmlns="http://www.w3.org/2000/svg">
  <path
    d="M11.333 12.2858H8.66634L5.69967 14.2592C5.25967 14.5525 4.66634 14.2392 4.66634 13.7059V12.2858C2.66634 12.2858 1.33301 10.9525 1.33301 8.95251V4.95247C1.33301 2.95247 2.66634 1.61914 4.66634 1.61914H11.333C13.333 1.61914 14.6663 2.95247 14.6663 4.95247V8.95251C14.6663 10.9525 13.333 12.2858 11.333 12.2858Z"
    stroke="currentColor" strokeMiterlimit="10" strokeLinecap="round" strokeLinejoin="round" />
  <path
    d="M8.0002 7.57227V7.43229C8.0002 6.97896 8.28022 6.73895 8.56022 6.54561C8.83355 6.35895 9.10685 6.11896 9.10685 5.67896C9.10685 5.06562 8.61354 4.57227 8.0002 4.57227C7.38687 4.57227 6.89355 5.06562 6.89355 5.67896"
    stroke="currentColor" strokeLinecap="round" strokeLinejoin="round" />
  <path d="M7.99733 9.16732H8.00333" stroke="currentColor" strokeLinecap="round"
    strokeLinejoin="round" />
</svg>
  