<svg width="149" height="36" viewBox="0 0 149 36" fill="none" xmlns="http://www.w3.org/2000/svg">
<g clip-path="url(#clip0_476_3822)">
<path d="M21.7935 28.7679H20.5115L19.372 34.0277H18.6598L19.7993 28.7679H18.3037L18.5886 28.1282H22.0072L21.7935 28.7679Z" fill="#5F5A5A"/>
<path d="M24.8557 31.7535L24.3571 34.028H23.7874L24.2859 31.7535C24.3571 31.5402 24.3571 31.2559 24.3571 31.1138C24.3571 30.9005 24.3571 30.7584 24.2859 30.6162C24.2147 30.4741 24.1435 30.3319 24.0722 30.2608C24.001 30.1897 23.8586 30.1187 23.7161 30.1187C23.5025 30.1187 23.2888 30.2608 23.0752 30.403C22.8615 30.6162 22.7191 30.8294 22.5766 31.1138C22.4342 31.3981 22.2917 31.6824 22.1493 32.0378C22.0068 32.3932 21.9356 32.6775 21.8644 32.8907L21.5795 33.9569H21.0098L22.2917 28.0574H22.8615L22.1493 31.3981C22.2917 31.0427 22.4342 30.7584 22.5766 30.4741C22.6478 30.3319 22.719 30.2608 22.7903 30.1187C22.8615 29.9765 22.9327 29.9054 23.0752 29.8343C23.1464 29.7633 23.2888 29.6922 23.4313 29.6211C23.5737 29.55 23.6449 29.55 23.7874 29.55C24.001 29.55 24.2147 29.6211 24.3571 29.6922C24.4996 29.7633 24.642 29.9765 24.7132 30.1187C24.7844 30.3319 24.8557 30.5451 24.8557 30.8294C24.9981 31.1138 24.9269 31.3981 24.8557 31.7535Z" fill="#5F5A5A"/>
<path d="M28.8449 31.3981C28.7737 31.6113 28.7025 31.7535 28.6312 31.7535C28.56 31.8246 28.4888 31.8956 28.4888 31.8956L26.1385 32.0378C26.0673 32.251 26.0673 32.4643 26.1385 32.6775C26.1385 32.7486 26.2097 32.8197 26.2097 32.9618C26.2097 33.0329 26.281 33.104 26.3522 33.1751C26.4234 33.2461 26.4946 33.3172 26.5658 33.3883C26.6371 33.4594 26.7795 33.4594 26.9219 33.5305C27.1356 33.6015 27.278 33.6015 27.4917 33.5305C27.6341 33.5305 27.7766 33.4594 27.919 33.3883C28.0615 33.3172 28.2039 33.2461 28.2751 33.1751L28.1327 33.6726C28.1327 33.7437 28.1327 33.7437 28.0615 33.7437L27.9902 33.8148C27.9902 33.8148 27.919 33.8148 27.8478 33.8858C27.7766 33.8858 27.7054 33.9569 27.6341 33.9569C27.5629 33.9569 27.4205 34.028 27.278 34.028C27.1356 34.028 26.9219 34.028 26.7795 34.028C26.5658 33.9569 26.3522 33.8858 26.2097 33.8148C25.9961 33.6726 25.8536 33.5305 25.7824 33.3172C25.64 33.104 25.5688 32.8907 25.5688 32.6775C25.4975 32.3932 25.5688 32.18 25.5688 31.8246C25.64 31.4692 25.7824 31.1138 25.9249 30.8295C26.0673 30.5451 26.281 30.3319 26.4234 30.1187C26.6371 29.9054 26.8507 29.7633 27.0644 29.6922C27.278 29.6211 27.5629 29.55 27.7766 29.6211C27.9902 29.6211 28.2039 29.6922 28.4176 29.8344C28.56 29.9765 28.7025 30.1187 28.7737 30.2608C28.8449 30.403 28.9161 30.6162 28.9161 30.8295C28.9161 31.0427 28.9161 31.1849 28.8449 31.3981ZM28.2751 31.2559C28.2751 31.1138 28.3463 30.9716 28.2751 30.8295C28.2751 30.6873 28.2039 30.5451 28.2039 30.4741C28.1327 30.403 28.0615 30.2608 27.9902 30.1897C27.919 30.1187 27.7766 30.0476 27.6341 30.0476C27.4917 30.0476 27.3493 30.0476 27.2068 30.1187C27.0644 30.1897 26.9932 30.1897 26.8507 30.2608C26.7795 30.3319 26.6371 30.403 26.5658 30.4741C26.4946 30.5451 26.4234 30.6873 26.3522 30.7584C26.2097 30.9716 26.1385 31.2559 26.0673 31.5402L27.9902 31.3981C28.0615 31.3981 28.0615 31.3981 28.1327 31.327C28.2039 31.327 28.2751 31.327 28.2751 31.2559Z" fill="#5F5A5A"/>
<path d="M34.4006 34.0279L34.2581 32.8196H31.9079L31.2669 34.0279H30.5547L33.6172 28.1995H34.4718L35.1128 34.0279H34.4006ZM33.902 28.9103L32.1928 32.1799H34.1869L33.902 28.9103Z" fill="#5F5A5A"/>
<path d="M36.8931 29.6921L35.9672 34.0279H35.3975L36.3233 29.6921H36.8931ZM37.2492 28.6259C37.2492 28.7681 37.178 28.8391 37.1067 28.8391C37.0355 28.9102 36.9643 28.9102 36.8219 28.9102C36.7506 28.9102 36.6794 28.8391 36.6082 28.7681C36.537 28.697 36.537 28.6259 36.537 28.5548C36.537 28.4837 36.6082 28.3416 36.6794 28.3416C36.7506 28.2705 36.8219 28.2705 36.9643 28.2705C37.0355 28.2705 37.1067 28.3416 37.178 28.3416C37.2492 28.4127 37.2492 28.4837 37.2492 28.6259Z" fill="#5F5A5A"/>
<path d="M39.8838 30.2608L39.8126 30.1898C39.8126 30.1898 39.7414 30.1187 39.6702 30.1187C39.5989 30.1187 39.5277 30.1187 39.4565 30.1187C39.3141 30.1187 39.1716 30.1898 39.0292 30.2608C38.8867 30.3319 38.8155 30.4741 38.6731 30.6162C38.5306 30.7584 38.4594 30.9716 38.3882 31.1138C38.317 31.327 38.2458 31.5403 38.1033 31.7535C38.0321 31.9667 37.9609 32.18 37.8897 32.3932C37.8184 32.6064 37.7472 32.8197 37.7472 32.9618L37.4623 34.028H36.8926L37.8184 29.6922H38.3882L38.0321 31.1849C38.1033 30.9005 38.2458 30.6162 38.317 30.403C38.3882 30.3319 38.4594 30.1898 38.4594 30.1187C38.5306 30.0476 38.6019 29.9054 38.6731 29.8344C38.7443 29.7633 38.8155 29.6922 38.958 29.6211C39.0292 29.5501 39.1716 29.55 39.2428 29.55C39.3853 29.55 39.4565 29.55 39.5277 29.55C39.5989 29.55 39.6702 29.6211 39.6702 29.6211C39.7414 29.6211 39.7414 29.6922 39.7414 29.7633V30.2608H39.8838Z" fill="#5F5A5A"/>
<path d="M39.813 34.0278H39.3145L40.5252 28.1283H41.095L39.813 34.0278Z" fill="#5F5A5A"/>
<path d="M42.2339 29.6922L41.308 34.028H40.7383L41.6641 29.6922H42.2339ZM42.59 28.626C42.59 28.7682 42.5188 28.8393 42.4476 28.8393C42.3763 28.9103 42.3051 28.9103 42.1627 28.9103C42.0915 28.9103 42.0202 28.8393 41.949 28.7682C41.8778 28.6971 41.8778 28.626 41.8778 28.5549C41.8778 28.4839 41.949 28.3417 42.0202 28.3417C42.0915 28.2706 42.1627 28.2706 42.3051 28.2706C42.3763 28.2706 42.4476 28.3417 42.5188 28.3417C42.59 28.4128 42.59 28.4839 42.59 28.626Z" fill="#5F5A5A"/>
<path d="M45.724 31.7535L45.2254 34.028H44.6557L45.1542 31.7535C45.2254 31.5403 45.2254 31.2559 45.2254 31.1138C45.2254 30.9005 45.2254 30.7584 45.1542 30.6162C45.083 30.4741 45.0118 30.3319 44.9405 30.2608C44.8693 30.1898 44.7269 30.1187 44.5844 30.1187C44.3708 30.1187 44.1571 30.2608 43.9435 30.403C43.7298 30.6162 43.5874 30.8295 43.4449 31.1138C43.3025 31.3981 43.16 31.6824 43.0176 32.0378C42.8752 32.3932 42.8039 32.6775 42.7327 32.8908L42.4478 33.9569H42.0205L42.9464 29.6922H43.4449L43.0888 31.3981C43.2313 31.0427 43.3737 30.7584 43.5161 30.4741C43.5874 30.3319 43.6586 30.2608 43.7298 30.1187C43.801 29.9765 43.9435 29.9054 44.0147 29.8344C44.0859 29.7633 44.2283 29.6922 44.3708 29.6211C44.5132 29.5501 44.5844 29.55 44.7269 29.55C44.9405 29.55 45.1542 29.6211 45.2966 29.6922C45.4391 29.7633 45.5815 29.9765 45.6527 30.1187C45.724 30.3319 45.7952 30.5452 45.7952 30.8295C45.8664 31.1138 45.7952 31.3981 45.724 31.7535Z" fill="#5F5A5A"/>
<path d="M49.7121 31.3981C49.6409 31.6113 49.5696 31.7535 49.4984 31.7535C49.4272 31.8246 49.356 31.8956 49.356 31.8956L47.0057 32.0378C46.9345 32.251 47.0057 32.4643 47.0057 32.6775C47.0057 32.7486 47.0769 32.8197 47.0769 32.9618C47.1482 33.0329 47.1482 33.104 47.2194 33.1751C47.2906 33.2461 47.3618 33.3172 47.433 33.3883C47.5043 33.4594 47.6467 33.4594 47.7891 33.5305C48.0028 33.6015 48.1452 33.6015 48.3589 33.5305C48.5013 33.5305 48.6438 33.4594 48.7862 33.3883C48.9287 33.3172 49.0711 33.2461 49.1423 33.1751L48.9999 33.6726C48.9999 33.7437 48.9999 33.7437 48.9287 33.7437L48.8574 33.8148C48.8574 33.8148 48.7862 33.8148 48.715 33.8858C48.6438 33.8858 48.5726 33.9569 48.5013 33.9569C48.4301 33.9569 48.2877 34.028 48.1452 34.028C48.0028 34.028 47.7891 34.028 47.6467 34.028C47.433 33.9569 47.2194 33.8858 47.0769 33.8148C46.8633 33.6726 46.7208 33.5305 46.6496 33.3172C46.5072 33.104 46.436 32.8907 46.436 32.6775C46.3647 32.3932 46.436 32.18 46.436 31.8246C46.5072 31.4692 46.6496 31.1138 46.7921 30.8295C46.9345 30.5451 47.1482 30.3319 47.3618 30.1187C47.5755 29.9054 47.7891 29.7633 48.0028 29.6922C48.2165 29.6211 48.5013 29.55 48.715 29.6211C48.9287 29.6211 49.1423 29.6922 49.356 29.8344C49.4984 29.9765 49.6409 30.1187 49.7121 30.2608C49.7833 30.403 49.8545 30.6162 49.8545 30.8295C49.7833 31.0427 49.7121 31.1849 49.7121 31.3981ZM49.1423 31.2559C49.2135 31.1138 49.2135 30.9716 49.1423 30.8295C49.1423 30.6873 49.0711 30.5451 48.9999 30.4741C48.9287 30.403 48.8574 30.2608 48.7862 30.1897C48.715 30.1187 48.5726 30.0476 48.4301 30.0476C48.2877 30.0476 48.1452 30.0476 48.0028 30.1187C47.8604 30.1897 47.7891 30.1897 47.6467 30.2608C47.5755 30.3319 47.5043 30.403 47.3618 30.4741C47.2906 30.5451 47.2194 30.6873 47.1482 30.7584C47.0057 30.9716 46.9345 31.2559 46.8633 31.5402L48.7862 31.3981C48.8574 31.3981 48.8574 31.3981 48.9287 31.327C49.0711 31.327 49.1423 31.327 49.1423 31.2559Z" fill="#5F5A5A"/>
<path d="M55.4809 31.8246C55.4096 32.18 55.3384 32.5354 55.196 32.8198C55.0535 33.1041 54.9111 33.3884 54.6974 33.5305C54.4838 33.7438 54.2701 33.8859 54.0565 33.957C53.8428 34.0281 53.5579 34.0992 53.2018 34.0281C52.9169 33.957 52.6321 33.8859 52.4184 33.7438C52.2047 33.6016 52.1335 33.3884 51.9911 33.1751C51.9199 32.9619 51.8486 32.7487 51.8486 32.5354C51.8486 32.3222 51.8486 32.109 51.8486 31.8957C51.9199 31.5403 51.9911 31.1849 52.1335 30.9006C52.2759 30.6163 52.4184 30.332 52.5608 30.1898C52.7745 29.9766 52.9882 29.8344 53.2018 29.7634C53.4867 29.6923 53.7716 29.6212 54.0565 29.6923C54.3413 29.6923 54.555 29.8344 54.7687 29.9766C54.9823 30.1188 55.1248 30.332 55.196 30.5452C55.2672 30.7585 55.3384 30.9717 55.4096 31.256C55.5521 31.3271 55.5521 31.6114 55.4809 31.8246ZM54.8399 31.8957C54.8399 31.7536 54.8399 31.6114 54.9111 31.3982C54.9111 31.1849 54.9111 31.0428 54.8399 30.8295C54.7687 30.6163 54.6974 30.4742 54.6262 30.332C54.4838 30.1898 54.3413 30.1188 54.1277 30.0477C53.914 30.0477 53.7004 30.0477 53.5579 30.1188C53.4155 30.1898 53.273 30.332 53.1306 30.4742C52.9882 30.6163 52.9169 30.8295 52.8457 31.1139C52.7745 31.3271 52.7033 31.6114 52.6321 31.8957C52.6321 32.109 52.5608 32.3222 52.6321 32.5354C52.6321 32.7487 52.7033 32.8908 52.7033 33.033C52.7745 33.1751 52.8457 33.3173 52.9882 33.3884C53.1306 33.4595 53.273 33.5305 53.4155 33.6016C53.6291 33.6016 53.8428 33.6016 54.0565 33.4595C54.2701 33.3173 54.4126 33.2462 54.4838 33.033C54.6262 32.8908 54.6974 32.6776 54.7687 32.4644C54.7687 32.2511 54.7687 32.0379 54.8399 31.8957Z" fill="#5F5A5A"/>
<path d="M58.2591 28.7679C58.2591 28.6968 58.1879 28.6968 58.1879 28.6258C58.1879 28.6258 58.1167 28.5547 58.0454 28.5547C57.9742 28.5547 57.903 28.5547 57.8318 28.5547C57.7606 28.5547 57.6893 28.5547 57.6181 28.6258C57.5469 28.6968 57.4757 28.6968 57.4757 28.7679C57.4045 28.839 57.4045 28.9101 57.4045 28.9812C57.4045 29.0522 57.4045 29.1233 57.3332 29.1233L57.262 29.6209H58.0454L57.903 30.0473H57.1196L56.0513 35.2361H55.5527L56.621 30.0473H55.9801L56.1225 29.6209H56.7635L56.8347 29.1233C56.8347 28.9812 56.9059 28.839 56.9771 28.6968C57.0484 28.5547 57.1196 28.4836 57.1908 28.3414C57.262 28.2704 57.3332 28.1282 57.4757 28.1282C57.6181 28.0571 57.6893 28.0571 57.8318 28.0571C57.9742 28.0571 58.0454 28.0571 58.1167 28.1282C58.1879 28.1282 58.2591 28.1993 58.2591 28.1993C58.3303 28.1993 58.3303 28.2704 58.3303 28.3414V28.7679H58.2591Z" fill="#5F5A5A"/>
<path d="M60.0394 34.0277H59.3271L60.5379 28.1282H61.2501L60.0394 34.0277Z" fill="#5F5A5A"/>
<path d="M64.6682 31.7535L64.1696 34.028H63.5999L64.0984 31.7535C64.1696 31.5403 64.1696 31.2559 64.1696 31.1138C64.1696 30.9005 64.1696 30.7584 64.0984 30.6162C64.0272 30.4741 63.956 30.3319 63.8847 30.2608C63.8135 30.1898 63.6711 30.1187 63.5286 30.1187C63.315 30.1187 63.1013 30.2608 62.8877 30.403C62.674 30.6162 62.5315 30.8295 62.3891 31.1138C62.2467 31.3981 62.1042 31.6824 61.9618 32.0378C61.8193 32.3932 61.7481 32.6775 61.6769 32.8908L61.392 33.9569H60.8223L61.7481 29.6922H62.3179L61.9618 31.3981C62.1042 31.0427 62.2467 30.7584 62.3891 30.4741C62.4603 30.3319 62.5315 30.2608 62.6028 30.1187C62.674 29.9765 62.7452 29.9054 62.8877 29.8344C62.9589 29.7633 63.1013 29.6922 63.2438 29.6211C63.3862 29.5501 63.4574 29.55 63.5999 29.55C63.8135 29.55 64.0272 29.6211 64.1696 29.6922C64.3121 29.7633 64.4545 29.9765 64.5257 30.1187C64.5969 30.3319 64.6682 30.5452 64.6682 30.8295C64.8106 31.1138 64.7394 31.3981 64.6682 31.7535Z" fill="#5F5A5A"/>
<path d="M69.4403 28.1282L68.2295 34.0277H67.6598L68.0159 32.2507C67.8734 32.6061 67.8022 32.8905 67.5885 33.1037C67.5173 33.2458 67.4461 33.3169 67.3749 33.4591C67.3037 33.5302 67.1612 33.6723 67.09 33.7434C67.0188 33.8145 66.8763 33.8856 66.7339 33.9566C66.5915 34.0277 66.5202 34.0277 66.3778 34.0277C66.0929 34.0277 65.8793 33.9566 65.7368 33.8145C65.5944 33.6723 65.4519 33.4591 65.3807 33.2458C65.3095 33.0326 65.2383 32.7483 65.2383 32.5351C65.2383 32.2507 65.2383 32.0375 65.3095 31.8243C65.3807 31.54 65.4519 31.2556 65.5944 30.9713C65.7368 30.687 65.8793 30.4738 66.0217 30.2605C66.1641 30.0473 66.3778 29.9051 66.5915 29.763C66.8051 29.6208 67.09 29.5497 67.3037 29.5497C67.5173 29.5497 67.6598 29.5498 67.8022 29.6208C67.9446 29.6919 68.0159 29.763 68.1583 29.8341C68.2295 29.9051 68.3007 29.9762 68.4432 30.1184L68.8705 28.1282H69.4403ZM68.372 30.5449C68.3008 30.4027 68.2295 30.3316 68.1583 30.2605C68.0871 30.1895 68.0159 30.1184 67.8734 30.1184C67.731 30.0473 67.5885 30.0473 67.4461 30.0473C67.2324 30.0473 67.0188 30.1184 66.8763 30.1895C66.7339 30.2605 66.5915 30.4027 66.449 30.5449C66.3066 30.687 66.2354 30.9002 66.1641 31.1135C66.0929 31.3267 66.0217 31.611 65.9505 31.8954C65.9505 32.1086 65.8793 32.3218 65.8793 32.5351C65.8793 32.7483 65.8793 32.8905 65.9505 33.0326C66.0217 33.1748 66.0217 33.3169 66.1641 33.388C66.2354 33.4591 66.3778 33.5302 66.449 33.5302C66.5915 33.5302 66.7339 33.5302 66.8051 33.4591C66.9476 33.388 67.09 33.2458 67.1612 33.1037C67.3037 32.9615 67.3749 32.7483 67.5173 32.6061C67.6598 32.3929 67.731 32.1797 67.8022 31.9664C67.8734 31.7532 67.9446 31.54 68.0159 31.3267C68.0871 31.1135 68.1583 30.9002 68.1583 30.7581L68.372 30.5449Z" fill="#5F5A5A"/>
<path d="M72.7875 31.8246C72.7163 32.18 72.6451 32.5354 72.5026 32.8198C72.3602 33.1041 72.2177 33.3884 72.0041 33.5305C71.7904 33.7438 71.5768 33.8859 71.3631 33.957C71.0782 34.0281 70.8646 34.0992 70.5085 34.0281C70.2236 33.957 69.9387 33.8859 69.725 33.7438C69.5114 33.6016 69.4402 33.3884 69.2977 33.1751C69.2265 32.9619 69.1553 32.7487 69.1553 32.5354C69.1553 32.3222 69.1553 32.109 69.1553 31.8957C69.2265 31.5403 69.2977 31.1849 69.4402 30.9006C69.5826 30.6163 69.725 30.332 69.8675 30.1898C70.0811 29.9766 70.2948 29.8344 70.5085 29.7634C70.7933 29.6923 71.0782 29.6212 71.3631 29.6923C71.648 29.6923 71.8616 29.8344 72.0753 29.9766C72.289 30.1188 72.4314 30.332 72.5026 30.5452C72.5738 30.7585 72.6451 30.9717 72.7163 31.256C72.8587 31.3271 72.8587 31.6114 72.7875 31.8246ZM72.1465 31.8957C72.1465 31.7536 72.1465 31.6114 72.2177 31.3982C72.2177 31.1849 72.2177 31.0428 72.1465 30.8295C72.0753 30.6163 72.0041 30.4742 71.9329 30.332C71.7904 30.1898 71.648 30.1188 71.4343 30.0477C71.2207 30.0477 71.007 30.0477 70.8646 30.1188C70.7221 30.1898 70.5797 30.332 70.4372 30.4742C70.2948 30.6163 70.2236 30.8295 70.1524 31.1139C70.0811 31.3271 70.0099 31.6114 69.9387 31.8957C69.9387 32.109 69.8675 32.3222 69.9387 32.5354C69.9387 32.7487 70.0099 32.8908 70.0099 33.033C70.0811 33.1751 70.1524 33.3173 70.2948 33.3884C70.4372 33.4595 70.5797 33.5305 70.7221 33.6016C70.9358 33.6016 71.1494 33.6016 71.3631 33.4595C71.5768 33.3173 71.7192 33.2462 71.7904 33.033C71.9329 32.8908 72.0041 32.6776 72.0753 32.4644C72.0753 32.2511 72.1465 32.0379 72.1465 31.8957Z" fill="#5F5A5A"/>
<path d="M76.5627 31.7535L76.0641 34.028H75.4944L75.9929 31.7535C76.0641 31.5403 76.0641 31.2559 76.0641 31.1138C76.0641 30.9005 76.0641 30.7584 75.9929 30.6162C75.9217 30.4741 75.8505 30.3319 75.7793 30.2608C75.708 30.1898 75.5656 30.1187 75.4232 30.1187C75.2095 30.1187 74.9958 30.2608 74.7822 30.403C74.5685 30.6162 74.4261 30.8295 74.2836 31.1138C74.1412 31.3981 73.9988 31.6824 73.8563 32.0378C73.7139 32.3932 73.6427 32.6775 73.5714 32.8908L73.2866 33.9569H72.7168L73.6427 29.6922H74.2124L73.8563 31.3981C73.9988 31.0427 74.1412 30.7584 74.2836 30.4741C74.3549 30.3319 74.4261 30.2608 74.4973 30.1187C74.5685 29.9765 74.6397 29.9054 74.7822 29.8344C74.8534 29.7633 74.9958 29.6922 75.1383 29.6211C75.2807 29.5501 75.4232 29.55 75.4944 29.55C75.708 29.55 75.9217 29.6211 76.0641 29.6922C76.2066 29.7633 76.349 29.9765 76.4202 30.1187C76.4915 30.3319 76.5627 30.5452 76.5627 30.8295C76.7051 31.1138 76.6339 31.3981 76.5627 31.7535Z" fill="#5F5A5A"/>
<path d="M80.55 31.3981C80.4787 31.6113 80.4075 31.7535 80.3363 31.7535C80.2651 31.8246 80.1939 31.8956 80.1939 31.8956L77.8436 32.0378C77.7724 32.251 77.7724 32.4643 77.8436 32.6775C77.8436 32.7486 77.9148 32.8197 77.9148 32.9618C77.986 33.0329 77.986 33.104 78.0573 33.1751C78.1285 33.2461 78.1997 33.3172 78.2709 33.3883C78.3421 33.4594 78.4846 33.4594 78.627 33.5305C78.8407 33.6015 78.9831 33.6015 79.1968 33.5305C79.3392 33.5305 79.4817 33.4594 79.6241 33.3883C79.7665 33.3172 79.909 33.2461 79.9802 33.1751L79.8378 33.6726C79.8378 33.7437 79.8378 33.7437 79.7665 33.7437L79.6953 33.8148C79.6953 33.8148 79.6241 33.8148 79.5529 33.8858C79.4817 33.8858 79.4104 33.9569 79.3392 33.9569C79.268 33.9569 79.1256 34.028 78.9831 34.028C78.8407 34.028 78.627 34.028 78.4846 34.028C78.2709 33.9569 78.0573 33.8858 77.9148 33.8148C77.7724 33.6726 77.5587 33.5305 77.4875 33.3172C77.3451 33.104 77.2738 32.8907 77.2738 32.6775C77.2026 32.3932 77.2738 32.18 77.2738 31.8246C77.3451 31.4692 77.4875 31.1138 77.6299 30.8295C77.7724 30.5451 77.986 30.3319 78.1997 30.1187C78.4134 29.9054 78.627 29.7633 78.8407 29.6922C79.0543 29.6211 79.3392 29.55 79.5529 29.6211C79.7665 29.6211 79.9802 29.6922 80.1939 29.8344C80.3363 29.9765 80.4787 30.1187 80.55 30.2608C80.6212 30.403 80.6924 30.6162 80.6924 30.8295C80.6212 31.0427 80.6212 31.1849 80.55 31.3981ZM79.9802 31.2559C80.0514 31.1138 80.0514 30.9716 79.9802 30.8295C79.9802 30.6873 79.909 30.5451 79.8378 30.4741C79.7665 30.403 79.6953 30.2608 79.6241 30.1897C79.5529 30.1187 79.4104 30.0476 79.268 30.0476C79.1256 30.0476 78.9831 30.0476 78.8407 30.1187C78.6982 30.1897 78.627 30.1897 78.4846 30.2608C78.4134 30.3319 78.2709 30.403 78.2709 30.4741C78.1997 30.5451 78.1285 30.6873 78.0573 30.7584C77.9148 30.9716 77.8436 31.2559 77.7724 31.5402L79.6953 31.3981C79.7665 31.3981 79.7665 31.3981 79.8378 31.327C79.909 31.327 79.9802 31.327 79.9802 31.2559Z" fill="#5F5A5A"/>
<path d="M83.6133 30.474C83.542 30.4029 83.4708 30.3318 83.3996 30.2607C83.3284 30.1896 83.2571 30.1897 83.1147 30.1186C83.0435 30.0475 82.901 30.0475 82.7586 30.0475C82.4737 30.0475 82.2601 30.0475 82.1176 30.1186C81.9752 30.1897 81.8327 30.3318 81.8327 30.545C81.8327 30.6872 81.8327 30.8294 81.904 30.9715C81.9752 31.1137 82.0464 31.1848 82.1888 31.3269C82.3313 31.4691 82.4025 31.5401 82.5449 31.6823C82.6874 31.8245 82.8298 31.8955 82.901 32.0377C83.0435 32.1799 83.1147 32.322 83.1859 32.4642C83.2572 32.6063 83.2572 32.8196 83.2572 32.9617C83.2572 33.175 83.1859 33.3171 83.1147 33.4593C83.0435 33.6014 82.901 33.7436 82.7586 33.8147C82.6162 33.8857 82.4737 33.9568 82.2601 33.9568C82.0464 33.9568 81.904 34.0279 81.6903 33.9568C81.5479 33.9568 81.4054 33.8857 81.263 33.8857C81.1205 33.8147 81.0493 33.8147 80.9069 33.7436C80.8357 33.6725 80.7644 33.6725 80.6932 33.6014C80.622 33.5304 80.622 33.5304 80.622 33.5304C80.5508 33.4593 80.5508 33.4593 80.5508 33.3882C80.5508 33.3171 80.5508 33.3171 80.5508 33.246L80.622 32.8906C80.6932 32.9617 80.8357 33.0328 80.9781 33.1039C81.0493 33.175 81.1918 33.246 81.3342 33.246C81.4766 33.3171 81.6191 33.3171 81.7615 33.3171C81.8327 33.3171 81.9752 33.3171 82.0464 33.3171C82.1176 33.3171 82.2601 33.246 82.3313 33.246C82.4025 33.175 82.4737 33.175 82.5449 33.1039C82.6162 33.0328 82.6162 32.9617 82.6874 32.8196C82.6874 32.6774 82.6874 32.5352 82.6162 32.3931C82.5449 32.2509 82.4737 32.1088 82.3313 32.0377C82.1888 31.8955 82.1176 31.8245 81.9752 31.6823C81.8327 31.5401 81.6903 31.4691 81.6191 31.3269C81.4766 31.1848 81.4054 31.0426 81.3342 30.9004C81.263 30.7583 81.263 30.6161 81.263 30.4029C81.263 30.2607 81.3342 30.0475 81.4054 29.9053C81.4766 29.7632 81.6191 29.6921 81.7615 29.5499C81.904 29.4789 82.0464 29.4078 82.1888 29.3367C82.3313 29.2656 82.5449 29.2656 82.7586 29.2656C82.901 29.2656 83.0435 29.2656 83.1147 29.3367C83.2571 29.3367 83.3284 29.4078 83.3996 29.4078C83.4708 29.4789 83.542 29.4789 83.6133 29.5499V30.474Z" fill="#5F5A5A"/>
<path d="M85.0376 29.6922L84.1118 34.028H83.542L84.4679 29.6922H85.0376ZM85.3225 28.626C85.3225 28.7682 85.2513 28.8393 85.1801 28.8393C85.1088 28.9103 85.0376 28.9103 84.8952 28.9103C84.824 28.9103 84.7527 28.8393 84.6815 28.7682C84.6103 28.6971 84.6103 28.626 84.6103 28.5549C84.6103 28.4839 84.6815 28.3417 84.7527 28.3417C84.824 28.2706 84.8952 28.2706 85.0376 28.2706C85.1088 28.2706 85.1801 28.3417 85.2513 28.3417C85.3225 28.4128 85.3937 28.4839 85.3225 28.626Z" fill="#5F5A5A"/>
<path d="M88.883 29.6922L87.9571 34.028H87.3874L87.8147 32.251C87.6723 32.6064 87.601 32.8908 87.3874 33.104C87.3162 33.2461 87.2449 33.3172 87.1737 33.4594C87.1025 33.5305 86.9601 33.6726 86.8888 33.7437C86.8176 33.8148 86.6752 33.8859 86.5327 33.9569C86.3903 34.028 86.3191 34.028 86.1766 34.028C85.8918 34.028 85.6781 33.9569 85.5356 33.8148C85.3932 33.6726 85.2508 33.4594 85.1795 33.2461C85.1083 33.0329 85.0371 32.7486 85.0371 32.5354C85.0371 32.251 85.0371 32.0378 85.1083 31.8246C85.1795 31.5403 85.2508 31.2559 85.3932 30.9716C85.5357 30.6873 85.6781 30.4741 85.8205 30.2608C85.963 30.0476 86.1766 29.9054 86.4615 29.7633C86.6752 29.6211 86.9601 29.55 87.1737 29.55C87.3874 29.55 87.5298 29.5501 87.6723 29.6211C87.8147 29.6922 87.8859 29.7633 88.0284 29.8344C88.0996 29.9054 88.1708 29.9765 88.3132 30.1187C88.3132 30.0476 88.3132 30.0476 88.3132 29.9765V29.9054V29.8344C88.3845 29.7633 88.4557 29.6922 88.5269 29.6922H88.883ZM88.1708 30.5452C88.0996 30.403 88.0284 30.3319 87.9571 30.2608C87.8859 30.1898 87.8147 30.1187 87.6723 30.1187C87.5298 30.0476 87.3874 30.0476 87.2449 30.0476C87.0313 30.0476 86.8176 30.1187 86.6752 30.2608C86.5327 30.403 86.3191 30.5452 86.2479 30.6873C86.1054 30.9005 86.0342 31.0427 85.963 31.2559C85.8917 31.4692 85.8205 31.6824 85.8205 31.8246C85.7493 32.0378 85.7493 32.251 85.7493 32.4643C85.7493 32.6775 85.7493 32.8197 85.8205 32.9618C85.8918 33.104 85.963 33.2461 86.0342 33.3172C86.1054 33.3883 86.2478 33.4594 86.3191 33.4594C86.4615 33.4594 86.604 33.4594 86.6752 33.3883C86.8176 33.3172 86.9601 33.1751 87.0313 33.0329C87.1737 32.8908 87.2449 32.6775 87.3874 32.5354C87.5298 32.3221 87.601 32.1089 87.6723 31.8957C87.7435 31.6824 87.8147 31.4692 87.8859 31.2559C87.9571 31.0427 88.0284 30.8295 88.0284 30.6873L88.1708 30.5452Z" fill="#5F5A5A"/>
<path d="M145.504 15.2633C146.857 16.6138 147.712 18.4619 147.854 20.4521C148.139 25.0011 144.792 28.9104 140.234 29.1948C138.097 29.3369 136.103 28.6972 134.536 27.4178C136.174 28.9104 138.311 29.7634 140.732 29.6212C145.29 29.3369 148.638 25.3565 148.353 20.8785C148.21 18.604 147.142 16.6138 145.504 15.2633Z" fill="#00498B"/>
<path d="M130.974 24.5745C130.689 24.7166 130.689 24.9299 130.76 25.2853C130.903 25.5696 131.045 25.7117 131.259 25.6407C131.401 25.5696 131.472 25.4274 131.401 25.072V24.9299C131.33 24.5745 131.33 24.4323 131.401 24.2191C131.472 24.0769 131.544 23.9348 131.686 23.8637C132.042 23.7215 132.398 23.9348 132.612 24.5034C132.826 25.072 132.754 25.4985 132.256 25.6407L132.113 25.3563C132.398 25.2142 132.47 24.9299 132.327 24.5034C132.185 24.148 131.971 24.0059 131.757 24.0769C131.544 24.148 131.544 24.2902 131.615 24.7166V24.8588V25.001C131.686 25.2853 131.686 25.3563 131.615 25.4985C131.544 25.6407 131.472 25.7828 131.33 25.7828C130.974 25.925 130.618 25.7117 130.475 25.2853C130.262 24.7877 130.404 24.3612 130.76 24.2191L130.974 24.5745Z" fill="#00498B"/>
<path d="M130.69 21.5891L131.972 20.594V20.9494L130.903 21.8023L131.259 22.2288L131.972 22.1577V22.5131H129.906V22.2288H130.69H130.903L130.832 22.1577L130.761 22.0866L129.835 21.0915V20.6651L130.69 21.5891Z" fill="#00498B"/>
<path d="M131.687 18.3195L132.47 18.6038L132.399 18.8881L131.616 18.6038L130.12 19.0303L130.263 18.6749L131.188 18.3906H131.331C131.402 18.3906 131.402 18.3906 131.473 18.3195C131.402 18.2484 131.402 18.2484 131.331 18.1063L130.761 17.3244L130.904 16.969L131.687 18.3195Z" fill="#00498B"/>
<path d="M133.112 14.481L132.613 14.9785L133.966 16.1158L133.682 16.4712L132.328 15.405L131.901 15.9025L131.545 15.6893L132.756 14.1967L133.112 14.481Z" fill="#00498B"/>
<path d="M135.959 12.4199L134.891 13.0596L135.105 13.4861L136.102 12.9175L136.244 13.2018L135.318 13.7704L135.532 14.1969L136.671 13.5572L136.814 13.9126L135.318 14.8366L134.25 12.9886L135.746 12.1356L135.959 12.4199Z" fill="#00498B"/>
<path d="M138.808 12.2067C138.666 11.9935 138.666 11.9224 138.595 11.7803C138.595 11.9224 138.524 12.0646 138.524 12.2778L138.452 12.7043L139.093 12.6332L138.808 12.2067ZM140.019 13.2729L139.449 13.344L139.165 12.9175L138.31 13.0597L138.167 13.5572L137.669 13.6994L138.239 11.3538L138.737 11.2827L140.019 13.2729Z" fill="#00498B"/>
<path d="M143.438 13.9836L143.011 13.8415L143.153 13.2018C143.153 13.1307 143.224 13.0596 143.224 12.9175C143.224 12.7753 143.296 12.7042 143.296 12.6331C143.296 12.5621 143.367 12.491 143.367 12.3488L143.438 12.2067C143.296 12.4199 143.296 12.491 143.153 12.6331C143.082 12.7042 143.082 12.7753 143.011 12.8464L142.441 13.6993L142.085 13.6282L141.943 12.6331C141.943 12.5621 141.943 12.491 141.943 12.4199C141.943 12.2778 141.943 12.2067 141.943 12.1356C141.943 12.0645 141.943 11.9934 141.943 11.8513L141.871 12.1356C141.8 12.4199 141.8 12.5621 141.729 12.8464L141.586 13.5572L141.088 13.4861L141.658 11.4248L142.37 11.567L142.441 12.5621C142.441 12.7753 142.441 12.9885 142.441 13.2729C142.512 13.1307 142.584 13.0596 142.655 12.9175C142.726 12.8464 142.797 12.7753 142.797 12.6331L143.367 11.8513L144.079 12.0645L143.438 13.9836Z" fill="#00498B"/>
<path d="M143.366 20.8074C144.007 20.3809 144.506 20.1677 144.791 20.1677C145.005 20.1677 145.218 20.2387 145.218 20.452C145.218 20.6652 145.005 20.8784 144.577 21.0206C144.221 21.1628 143.58 21.1628 142.939 21.0917C143.153 21.0206 143.295 20.8784 143.366 20.8074ZM134.82 21.5182C134.464 21.5182 134.25 21.3049 134.25 21.0206C134.25 20.9495 134.25 20.0255 136.387 19.9544C136.601 19.9544 136.885 19.9544 137.313 19.9544L137.099 20.1677L136.957 20.3098C136.458 20.8074 135.603 21.5892 134.82 21.5182ZM139.378 18.0353C139.093 18.2485 138.595 18.7461 138.096 19.2436L137.526 19.8123C137.099 19.7412 136.601 19.6701 136.173 19.6701C135.176 19.6701 134.179 19.9544 133.752 20.3809C133.609 20.523 133.538 20.7363 133.538 20.9495C133.538 21.4471 134.108 21.7314 134.322 21.7314C135.247 22.0868 136.031 21.9446 136.814 21.376C137.242 21.0917 137.811 20.5941 138.239 20.1677C138.595 20.2387 138.951 20.3098 139.307 20.452L139.663 20.5941C139.164 21.0917 138.666 21.5892 138.239 21.9446C137.598 22.5133 137.17 22.8686 136.529 23.0108C136.031 23.0819 135.746 23.0108 135.603 22.9397C135.96 23.224 136.316 23.4373 136.957 23.3662C137.526 23.2951 138.239 22.9397 138.951 22.3L139.877 21.376L140.518 20.7363L141.871 21.0917L141.016 21.8735L140.304 22.5843C139.592 23.2951 139.164 23.6505 138.737 23.9348C138.025 24.4324 137.455 24.7167 136.885 24.7167C136.601 24.7167 136.244 24.7167 135.888 24.5035C136.244 24.7878 136.672 25.1432 137.455 25.1432C138.31 25.1432 139.093 24.7167 140.233 23.6505C140.803 23.153 141.301 22.5843 141.8 22.0868L142.654 21.1628C143.224 21.3049 143.723 21.376 144.292 21.3049C145.147 21.3049 145.859 20.8784 145.859 20.452C145.859 20.0966 145.574 19.9544 145.432 19.8123C145.289 19.7412 144.933 19.5279 144.435 19.5279C143.794 19.5279 143.153 19.8123 142.512 20.3098L142.085 20.6652L141.942 20.5941L140.731 20.2387C141.087 19.8833 141.372 19.599 141.657 19.3858C142.298 18.8172 143.082 18.5328 143.509 18.5328C143.794 18.5328 144.364 18.5328 144.577 18.675C144.007 18.1774 143.438 18.1064 143.01 18.1064C142.583 18.1064 141.942 18.2485 141.087 18.8882C140.731 19.1726 140.304 19.599 139.877 20.0255L139.236 19.8123L139.093 19.7412L138.452 19.5279L138.808 19.1726C139.236 18.7461 139.663 18.3196 139.948 18.0353C141.087 17.0402 141.871 16.898 142.369 16.898C142.939 16.898 143.366 17.0402 143.723 17.2534C143.082 16.6848 142.583 16.4716 141.8 16.4716C141.087 16.898 140.233 17.3245 139.378 18.0353Z" fill="#00498B"/>
<path d="M144.65 12.3488C144.721 12.3488 144.792 12.4198 144.792 12.3488C144.792 12.3488 144.792 12.2777 144.721 12.2777L144.65 12.2066V12.3488ZM144.721 12.6331L144.65 12.4198H144.578L144.507 12.562H144.436L144.65 12.2066L144.792 12.2777C144.863 12.2777 144.935 12.3488 144.863 12.4198C144.792 12.4909 144.792 12.4909 144.721 12.4198V12.6331ZM144.863 12.562C144.935 12.4198 144.863 12.2066 144.721 12.1355C144.578 12.0644 144.436 12.1355 144.294 12.2777C144.222 12.4198 144.294 12.562 144.436 12.7041C144.65 12.7041 144.792 12.7041 144.863 12.562ZM144.294 12.2777C144.365 12.1355 144.578 11.9934 144.721 12.0644C144.935 12.1355 145.006 12.3488 144.935 12.4909C144.863 12.6331 144.65 12.7752 144.507 12.7041C144.294 12.6331 144.222 12.4198 144.294 12.2777Z" fill="#00498B"/>
<path d="M108.469 10.643C105.834 9.29251 103.698 9.15035 102.701 9.15035H99.2107L98.9971 8.79496H103.128C103.413 8.79496 106.831 8.72388 108.897 9.29251C111.389 9.93222 113.17 11.2827 113.526 11.496C113.882 11.7092 118.44 14.9788 118.44 14.9788C118.44 14.9788 117.657 15.7607 116.945 15.7607C116.232 15.7607 115.449 15.1921 115.449 15.1921C115.449 15.1921 112.956 13.4151 112.6 13.1308C112.173 12.9886 110.25 11.567 108.469 10.643Z" fill="#009CA9"/>
<path d="M108.255 13.2019C109.965 14.3391 111.033 15.1921 111.389 15.4764C111.745 15.6896 113.241 16.8269 113.241 16.8269C113.241 16.8269 113.953 17.3955 114.808 17.3955C115.448 17.3955 116.303 16.6136 116.303 16.6136C116.303 16.6136 112.6 13.9837 112.244 13.7705C111.887 13.5573 110.748 12.6332 108.54 11.9935C106.688 11.496 104.053 11.496 103.911 11.496H100.563L100.777 11.8514C100.777 11.8514 103.341 11.8514 103.484 11.8514C103.84 11.8514 106.475 11.9935 108.255 13.2019Z" fill="#009CA9"/>
<path d="M108.825 7.87096C111.104 9.0793 113.312 10.7141 113.668 11.0695C114.095 11.3538 117.442 13.7705 117.442 13.7705C117.442 13.7705 118.226 14.3391 118.938 14.3391C119.65 14.3391 120.434 13.5573 120.434 13.5573C120.434 13.5573 115.021 9.71901 114.594 9.36362C114.095 9.00822 112.172 7.44449 109.039 6.7337C106.617 6.09399 102.557 6.16507 102.273 6.16507H97.3584L97.5721 6.52046H101.845C102.771 6.44938 106.261 6.52046 108.825 7.87096Z" fill="#009CA9"/>
<path d="M128.339 7.87091C127.698 7.72875 126.772 7.72875 126.772 7.72875L125.561 8.08415L124.849 7.51552C124.849 7.51552 126.273 7.65767 126.701 7.65767C127.057 7.65767 126.914 7.51552 126.772 7.16012C126.629 6.80473 126.202 6.80473 126.202 6.80473H122.641C122.641 6.80473 122 6.80473 121.288 6.66257C120.576 6.52041 120.291 5.95178 120.291 5.95178C120.006 6.59149 121.145 7.37336 121.145 7.37336L124.706 9.9322C125.134 10.2165 125.561 10.0033 125.561 10.0033C125.561 10.0033 126.487 9.5768 126.986 9.43464C127.413 9.29249 128.837 9.29249 129.051 9.29249C129.478 9.36357 129.906 9.71896 129.906 9.71896C130.048 8.08415 129.051 7.94199 128.339 7.87091Z" fill="#003473"/>
<path d="M109.537 2.61127C112.03 3.67745 115.52 6.30737 116.018 6.73384C116.517 7.08923 121.644 10.7143 121.644 10.7143C121.644 10.7143 122.428 11.2829 123.211 11.2829C123.923 11.2829 124.707 10.5721 124.707 10.5721C124.707 10.5721 117.514 5.38334 117.015 5.02795C116.517 4.67255 114.095 2.68235 109.679 1.47401C106.617 0.692139 101.347 0.692139 100.777 0.692139H94.2959L94.5096 1.04753H100.492C101.916 1.04753 106.261 1.18969 109.537 2.61127Z" fill="#003473"/>
<path d="M109.181 5.24102C106.546 3.89052 103.199 3.74836 101.347 3.74836H96.0769L95.8633 3.39297H101.561C102.202 3.39297 106.475 3.32189 109.395 4.03267C112.671 4.81454 115.52 6.94691 115.805 7.16014C116.09 7.37338 122.642 11.9935 122.642 11.9935C122.642 11.9935 121.93 12.7754 121.075 12.7754C120.363 12.7754 119.508 12.2067 119.508 12.2067C119.508 12.2067 115.235 9.15035 114.879 8.86603C114.452 8.58172 111.674 6.44935 109.181 5.24102Z" fill="#003473"/>
<path d="M14.3864 24.3614C14.3152 24.3614 14.0303 24.3614 13.8879 24.2192C13.7455 24.0771 13.7455 23.9349 13.7455 23.7927V23.3663C13.2469 24.0771 12.4635 24.5035 11.324 24.5035C9.47224 24.4325 9.04492 23.0109 9.04492 22.1579C9.04492 21.8736 9.04492 21.305 9.47224 20.7364C10.1132 19.8123 11.5376 19.528 12.7484 19.528C13.2469 19.528 13.6742 19.5991 13.6742 19.5991V18.8172C13.6742 18.5329 13.6742 18.0354 13.3894 17.68C13.1757 17.3956 12.6772 17.1824 11.8937 17.1824C10.6118 17.1824 9.75712 17.8932 9.75712 17.8932L9.89956 16.8981C9.89956 16.8981 10.7542 16.3295 12.1786 16.3295C13.3181 16.3295 14.1728 16.6138 14.6001 17.1113C15.1699 17.68 15.3123 18.1775 15.3123 19.2437V24.4325M13.6742 20.3099C13.6742 20.3099 13.2469 20.2388 12.8196 20.2388C11.7513 20.2388 10.9679 20.7364 10.7542 21.4471C10.683 21.5893 10.683 21.8736 10.683 22.0158C10.683 22.9398 11.324 23.4373 12.1074 23.4373C12.2498 23.4373 12.5347 23.4373 12.7484 23.2952C13.3181 23.082 13.7455 22.7266 13.7455 22.1579V20.3099H13.6742Z" fill="#5F5A5A"/>
<path d="M19.5865 17.3956C18.2333 17.6799 18.0908 18.675 18.0908 19.4569V24.3613H16.524V17.3245C16.524 16.6137 16.0967 16.4716 16.0967 16.4716H17.6635C18.0196 16.4716 18.1621 16.6848 18.1621 16.8981V17.3245C18.2333 17.1824 18.803 16.4005 19.8001 16.4005C20.1562 16.4005 20.5123 16.4005 20.726 16.5427L20.9397 17.5378C20.6548 17.3956 20.2274 17.2535 19.5865 17.3956Z" fill="#5F5A5A"/>
<path d="M27.135 24.3613C27.0638 24.3613 26.7789 24.3613 26.6364 24.2191C26.494 24.077 26.494 23.8638 26.494 23.7927V23.3662C26.0667 24.077 25.2833 24.5035 24.2862 24.5035C23.4315 24.5035 22.933 24.2902 22.4344 23.7927C21.9359 23.224 21.7935 22.5133 21.7935 21.5182V17.1823C21.7935 16.6137 21.2949 16.4716 21.2949 16.4716H22.7905C23.1466 16.4716 23.3603 16.6848 23.3603 16.898V21.6603C23.3603 23.0819 23.7876 23.4373 24.7847 23.4373C25.5681 23.4373 26.494 22.8687 26.494 22.0868V16.4716H28.0608V24.3613" fill="#5F5A5A"/>
<path d="M48.7149 24.3611C48.3588 24.3611 48.2164 24.219 48.2164 23.7925V14.5523C48.2164 13.9836 47.7891 13.7704 47.7891 13.7704H49.2847C49.712 13.7704 49.9257 13.9836 49.9257 14.339V24.4322" fill="#5F5A5A"/>
<path d="M70.1529 24.5035C67.5889 24.5035 66.6631 22.8687 66.6631 20.5231C66.6631 18.3197 67.5889 16.3295 70.1529 16.4005C72.788 16.4005 73.5714 18.3907 73.5714 20.5231C73.5714 22.7265 72.2895 24.5035 70.1529 24.5035ZM70.1529 17.1824C68.586 17.1824 68.3012 18.8172 68.3012 20.5231C68.3012 22.6555 68.8709 23.7216 70.1529 23.7216C71.2924 23.7216 71.8622 22.3712 71.8622 20.5231C71.8622 19.0304 71.7197 17.1824 70.1529 17.1824Z" fill="#5F5A5A"/>
<path d="M93.727 23.7927C93.1572 24.2903 92.445 24.5035 91.5904 24.5035H91.5191C90.3084 24.5035 89.5962 24.1481 89.3113 24.0059L89.0977 23.0819C89.0977 23.0819 90.166 23.7927 91.3055 23.7927C92.3738 23.7927 93.0148 23.2241 92.9435 22.229C92.8011 20.6652 89.3113 21.0917 89.3113 18.5329C89.3113 17.1113 90.4508 16.4005 91.8752 16.4005H91.9465C93.3709 16.4005 93.9406 16.8981 93.9406 16.8981L94.1543 17.751C94.1543 17.751 93.5133 17.1113 92.3026 17.1113C90.9494 17.1113 90.8069 18.1775 90.8782 18.4618C90.9494 19.2437 91.5191 19.3858 92.5874 19.8834C93.6557 20.3809 94.5104 20.9496 94.5104 22.0868C94.4392 22.8687 94.1543 23.4373 93.727 23.7927Z" fill="#5F5A5A"/>
<path d="M95.8634 24.3613C95.5785 24.3613 95.436 24.2191 95.436 23.9348V17.1823C95.436 16.6848 94.9375 16.4716 94.9375 16.4716H96.5756C96.9317 16.4716 97.0029 16.6137 97.0029 16.9691V24.3613" fill="#5F5A5A"/>
<path d="M52.6323 16.5426C52.9172 16.5426 53.0596 16.6848 53.0596 16.9691V17.6088C53.4869 16.898 54.2703 16.4716 55.2674 16.4716C56.1221 16.4716 56.6206 16.6848 57.1191 17.1823C57.6177 17.751 57.7601 18.4618 57.7601 19.4569V24.5035H56.8343C56.4069 24.5035 56.1933 24.2191 56.1933 23.8638V19.1726C56.1933 17.751 55.766 17.3956 54.7689 17.3956C53.9855 17.3956 53.0596 17.9642 53.0596 18.7461V24.3613H51.4928V17.1823C51.4928 16.6137 51.0654 16.4716 51.0654 16.4716" fill="#5F5A5A"/>
<path d="M103.341 24.3611C103.27 24.3611 102.985 24.3611 102.843 24.219C102.7 24.0768 102.7 23.9347 102.7 23.7925V23.366C102.202 24.0768 101.418 24.5033 100.208 24.5033C98.356 24.4322 97.9287 23.0106 97.9287 22.1577C97.9287 21.8734 97.9287 21.3047 98.356 20.7361C98.997 19.8121 100.421 19.5278 101.632 19.5278C102.131 19.5278 102.558 19.5988 102.558 19.5988V18.817C102.558 18.5327 102.629 18.0351 102.273 17.6797C102.059 17.3954 101.561 17.1822 100.706 17.1822C99.2819 17.1822 98.6409 17.893 98.6409 17.893L98.7834 16.8979C98.7834 16.8979 99.638 16.3292 101.062 16.3292C102.202 16.3292 102.985 16.6135 103.484 17.1111C104.054 17.6797 104.125 18.1773 104.125 19.2435V24.4322M102.629 20.3096C102.629 20.3096 102.202 20.2386 101.775 20.2386C100.706 20.2386 99.9229 20.7361 99.7092 21.4469C99.638 21.5891 99.638 21.8734 99.638 22.0155C99.638 22.9396 100.279 23.4371 101.062 23.4371C101.205 23.4371 101.49 23.4371 101.632 23.2949C102.202 23.0817 102.629 22.7263 102.629 22.1577V20.3096Z" fill="#5F5A5A"/>
<path d="M34.5425 24.3611C34.2576 24.3611 34.1152 24.29 34.1152 24.0057V23.6503C33.5454 24.1479 32.9756 24.5033 32.0498 24.5033C29.7707 24.5033 28.9873 22.5842 28.9873 20.5229C28.9873 18.9591 29.6283 16.4003 32.121 16.4003C33.6166 16.4003 34.0439 17.3243 34.0439 17.3243V14.6233C34.0439 14.0547 33.5454 13.7704 33.5454 13.7704H34.7561C35.2547 13.7704 35.5396 14.1258 35.5396 14.4812V24.5033M34.0439 19.1724C34.0439 18.7459 33.9727 18.0351 33.6166 17.6797C33.3317 17.3954 32.9756 17.2532 32.4059 17.2532C30.839 17.2532 30.6966 19.3145 30.6966 20.3807V20.5229C30.6966 22.0866 31.1239 23.5793 32.4059 23.5793C33.1181 23.5793 33.6166 23.2949 33.9727 22.7974V19.1724H34.0439Z" fill="#5F5A5A"/>
<path d="M42.1618 24.3614C42.0905 24.3614 41.8057 24.3614 41.6632 24.2192C41.5208 24.0771 41.5208 23.9349 41.5208 23.7927V23.3663C41.0222 24.0771 40.2388 24.5035 39.0281 24.5035C37.1763 24.4325 36.749 23.0109 36.749 22.1579C36.749 21.8736 36.749 21.305 37.1763 20.7364C37.8173 19.8123 39.2417 19.528 40.4525 19.528C40.951 19.528 41.3783 19.5991 41.3783 19.5991V18.8172C41.3783 18.5329 41.3783 18.0354 41.0935 17.68C40.8798 17.3956 40.3813 17.1824 39.5978 17.1824C38.3159 17.1824 37.4612 17.8932 37.4612 17.8932L37.6037 16.8981C37.6037 16.8981 38.4583 16.3295 39.8827 16.3295C41.0222 16.3295 41.8769 16.6138 42.3042 17.1113C42.874 17.68 43.0164 18.1775 43.0164 19.2437V24.4325M41.4496 20.3099C41.4496 20.3099 41.0222 20.2388 40.5949 20.2388C39.5266 20.2388 38.7432 20.7364 38.5295 21.4471C38.4583 21.5893 38.4583 21.8736 38.4583 22.0158C38.4583 22.9398 39.0993 23.4373 39.8827 23.4373C40.0252 23.4373 40.31 23.4373 40.4525 23.2952C41.0222 23.082 41.4496 22.7266 41.4496 22.1579V20.3099Z" fill="#5F5A5A"/>
<path d="M64.4547 24.3611C64.1698 24.3611 64.0273 24.29 64.0273 24.0057V23.6503C63.4576 24.1479 62.8878 24.5033 61.9619 24.5033C59.7541 24.5033 58.9707 22.5842 58.9707 20.5229C58.9707 18.9591 59.6117 16.4003 62.1044 16.4003C63.6 16.4003 64.0273 17.3243 64.0273 17.3243V14.6233C64.0273 14.0547 63.6 13.7704 63.6 13.7704H64.8108C65.3093 13.7704 65.5942 14.1258 65.5942 14.4812V24.5033M63.9561 19.1724C63.9561 18.7459 63.8849 18.0351 63.5288 17.6797C63.3151 17.3954 62.8878 17.2532 62.3181 17.2532C60.7512 17.2532 60.6088 19.3145 60.6088 20.3807V20.5229C60.6088 22.0866 61.0361 23.5793 62.3181 23.5793C63.0303 23.5793 63.5288 23.2949 63.8849 22.7974V19.1724H63.9561Z" fill="#5F5A5A"/>
<path d="M75.7075 16.5426C75.9924 16.5426 76.1349 16.6848 76.1349 16.9691V17.6088C76.5622 16.898 77.3456 16.4716 78.4139 16.4716C79.2685 16.4716 79.7671 16.6848 80.2656 17.1823C80.7642 17.751 80.9066 18.4618 80.9066 19.4569V24.5035H79.9808C79.5534 24.5035 79.3398 24.2191 79.3398 23.8638V19.1726C79.3398 17.751 78.9124 17.3956 77.9154 17.3956C77.1319 17.3956 76.2061 17.9642 76.2061 18.7461V24.3613H74.6392V17.1823C74.6392 16.6137 74.2119 16.4716 74.2119 16.4716" fill="#5F5A5A"/>
<path d="M6.48104 24.4323C5.84006 24.5034 5.48395 24.5744 4.84297 24.5744C3.20491 24.5744 2.20783 24.0769 1.4244 23.295C0.284881 22.1578 0 20.3097 0 19.1014C0 18.1773 0.14244 16.2582 1.70928 14.8366C2.42149 14.1969 3.48979 13.6283 5.19907 13.6283C6.6947 13.6283 7.4069 14.0548 7.4069 14.0548L7.69178 15.0499C7.62056 15.0499 6.83714 14.5523 5.62639 14.5523C2.99125 14.5523 1.92295 16.3293 1.92295 19.1014C1.92295 23.295 3.98833 23.6504 5.12785 23.6504C5.9825 23.6504 6.26738 23.5082 6.26738 23.5082V19.3146H5.27029C4.62931 19.3146 4.41565 19.3857 4.41565 19.3857L4.55809 18.5327H7.90544V24.148C7.33568 24.2901 7.0508 24.3612 6.48104 24.4323Z" fill="#5F5A5A"/>
<path d="M86.0343 16.3296C87.886 16.4718 88.3133 17.8223 88.3133 18.6752C88.3133 18.9596 88.3133 19.5282 87.886 20.0968C87.245 21.0208 85.8206 21.3052 84.6099 21.3052C84.1114 21.3052 83.684 21.2341 83.684 21.2341V21.9449C83.684 23.2954 84.3962 23.7218 85.607 23.6508C86.9602 23.6508 88.0285 22.7978 88.0285 22.7978L87.886 23.7929C87.886 23.7929 86.6753 24.5037 85.2509 24.5037C84.1113 24.5037 83.1855 24.2194 82.7582 23.7218C82.1884 23.1532 82.1172 22.3003 82.1172 21.3052V19.5993C82.1172 18.1066 82.6869 16.0453 86.0343 16.3296ZM83.684 20.4522C83.684 20.4522 84.1113 20.5233 84.5387 20.5233C86.3192 20.5233 86.6753 19.6703 86.7465 18.6752C86.8177 17.8223 86.6041 16.8983 85.1797 17.1115C83.9689 17.2537 83.6128 18.1066 83.6128 19.1017C83.684 19.8836 83.684 20.4522 83.684 20.4522Z" fill="#5F5A5A"/>
</g>
<defs>
<clipPath id="clip0_476_3822">
<rect width="148.352" height="34.6154" fill="white" transform="translate(0 0.692261)"/>
</clipPath>
</defs>
</svg>
