<svg width="48" height="22" viewBox="0 0 48 22" fill="none" xmlns="http://www.w3.org/2000/svg">
<g id="Garuda Indonesia svg" clip-path="url(#clip0_1886_5472)">
<g id="Group">
<path id="Vector" d="M19.1509 13.1039C15.6243 11.3343 12.7345 11.1909 11.3631 11.1909H6.61209L6.36719 10.7604H11.9509C12.3427 10.7604 16.9468 10.7126 19.6896 11.43C23.1182 12.3387 25.4692 14.0604 25.91 14.3474C26.3509 14.6343 32.5713 18.9865 32.5713 18.9865C32.5713 18.9865 31.5427 20.0387 30.5141 20.0387C29.5345 20.0387 28.506 19.3213 28.506 19.3213C28.506 19.3213 25.1754 16.9778 24.6856 16.643C24.1468 16.2604 21.5019 14.2996 19.1509 13.1039Z" fill="#009CA9"/>
<path id="Vector_2" d="M18.9074 16.5476C21.2584 18.0781 22.6299 19.1781 23.0707 19.5128C23.5115 19.8476 25.6176 21.2824 25.6176 21.2824C25.6176 21.2824 26.5482 21.9998 27.7727 21.9998C28.6544 21.9998 29.7809 20.9955 29.7809 20.9955C29.7809 20.9955 24.736 17.552 24.2952 17.2172C23.8544 16.8824 22.238 15.6868 19.2503 14.9215C16.7523 14.2998 13.2258 14.2998 12.9809 14.2998H8.42578L8.67068 14.7302C8.67068 14.7302 12.0993 14.7302 12.3441 14.7302C12.9319 14.7781 16.4095 14.9215 18.9074 16.5476Z" fill="#009CA9"/>
<path id="Vector_3" d="M19.6395 9.51723C22.6762 11.0955 25.664 13.2955 26.2028 13.6781C26.7905 14.0607 31.2967 17.2651 31.2967 17.2651C31.2967 17.2651 32.3742 17.9824 33.3538 17.9824C34.2844 17.9824 35.362 16.9781 35.362 16.9781C35.362 16.9781 28.162 11.8607 27.4762 11.3824C26.8395 10.952 24.1946 8.84766 19.9824 7.84331C16.7497 7.0781 11.264 7.17375 10.8722 7.17375H4.21094L4.45584 7.60418H10.2844C11.5089 7.60418 16.113 7.65201 19.6395 9.51723Z" fill="#009CA9"/>
<path id="Vector_4" d="M45.991 9.4693C45.1093 9.32582 43.9338 9.23017 43.9338 9.23017L42.3175 9.66061L41.3869 8.89539C41.3869 8.89539 43.2971 9.03887 43.8359 9.13452C44.2767 9.13452 44.1297 8.89539 43.9338 8.46495C43.6889 8.03452 43.1502 8.03452 43.1502 8.03452H38.3012C38.3012 8.03452 37.4195 8.03452 36.4399 7.79539C35.4604 7.55626 35.0685 6.83887 35.0685 6.83887C34.6767 7.69974 36.1951 8.70408 36.1951 8.70408L40.995 12.0519C41.6318 12.4345 42.1706 12.1476 42.1706 12.1476C42.1706 12.1476 43.3951 11.5736 44.0808 11.3823C44.7175 11.2389 46.6277 11.1432 46.8236 11.2389C47.3624 11.3345 47.9502 11.8606 47.9502 11.8606C48.293 9.75626 46.9216 9.61278 45.991 9.4693Z" fill="#003473"/>
<path id="Vector_5" d="M20.6204 2.48631C23.951 3.92109 28.702 7.4124 29.3878 7.89066C30.0735 8.36892 36.9306 13.1994 36.9306 13.1994C36.9306 13.1994 38.0082 13.9646 38.9878 13.9646C39.9673 13.9646 40.9959 12.9602 40.9959 12.9602C40.9959 12.9602 31.298 6.16892 30.6122 5.69066C29.9265 5.2124 26.6939 2.53414 20.7184 1.0037C16.6041 -0.0484706 9.6 -0.000644436 8.76735 -0.000644436H0L0.293878 0.477616H8.32653C10.3347 0.477616 16.2122 0.621094 20.6204 2.48631Z" fill="#003473"/>
<path id="Vector_6" d="M20.081 5.97772C16.5055 4.20815 12.0483 4.01685 9.45241 4.01685H2.39935L2.10547 3.58642H9.84424C10.6769 3.58642 16.5055 3.53859 20.3749 4.39946C24.832 5.40381 28.6524 8.22555 29.0442 8.5125C29.4361 8.75163 38.2524 14.9212 38.2524 14.9212C38.2524 14.9212 37.2238 15.9255 36.1953 15.9255C35.2157 15.9255 34.1381 15.1603 34.1381 15.1603C34.1381 15.1603 28.4075 11.1429 27.8687 10.7603C27.281 10.4255 23.4606 7.65163 20.081 5.97772Z" fill="#003473"/>
</g>
</g>
<defs>
<clipPath id="clip0_1886_5472">
<rect width="48" height="22" fill="white"/>
</clipPath>
</defs>
</svg>
