<svg width="149" height="40" viewBox="0 0 149 40" fill="none" xmlns="http://www.w3.org/2000/svg">
<g clip-path="url(#clip0_476_3877)">
<path fill-rule="evenodd" clip-rule="evenodd" d="M4.59118 11.5929C3.19621 15.5482 1.82061 19.5035 0.44501 23.4588C0.348136 23.79 0.251263 24.1407 0.193139 24.4525C0.115641 24.7837 0.0768914 25.0955 0.0381421 25.4072C0.0187674 25.7384 -0.000607217 26.0697 0.0187674 26.4009C0.0381421 26.7127 0.096266 27.0049 0.212514 27.3556C0.328762 27.7064 0.483759 28.096 0.69688 28.4468C0.910001 28.7975 1.18125 29.0897 1.49124 29.343C1.80123 29.5963 2.14998 29.7912 2.57622 29.947C3.00246 30.1029 3.48683 30.2003 3.91307 30.2588C4.31994 30.3172 4.66868 30.3172 4.99805 30.3172C8.17549 30.3172 11.3529 30.3172 14.5304 30.3172C14.6079 30.3172 14.6854 30.2978 14.7629 30.2783C14.8404 30.2588 14.9179 30.2198 14.9954 30.1614C15.0729 30.1029 15.1504 30.0445 15.2279 29.9665C15.3054 29.8886 15.3635 29.7912 15.4216 29.6743C15.4797 29.5574 15.5185 29.4599 15.5572 29.3625C15.906 28.3104 16.2353 27.2582 16.4872 26.4788C16.7391 25.6995 16.8941 25.1929 16.991 24.9006C17.0878 24.6084 17.1072 24.5304 17.1072 24.4525C17.1072 24.3745 17.1072 24.3161 17.1072 24.2576C17.1072 24.1992 17.0685 24.1407 17.0297 24.0823C16.991 24.0238 16.9328 23.9849 16.8941 23.9654C16.8553 23.9459 16.7972 23.9264 16.7391 23.9069C16.681 23.8874 16.6228 23.8874 16.5453 23.8874C14.2204 23.8874 11.9148 23.8874 9.58984 23.8874C9.47359 23.8874 9.37672 23.8874 9.27985 23.868C9.18297 23.8485 9.0861 23.79 9.0086 23.7511C8.9311 23.6926 8.85361 23.6341 8.79548 23.5757C8.73736 23.5172 8.67923 23.4198 8.64048 23.3224C8.60174 23.2055 8.58236 23.0886 8.58236 22.9522C8.58236 22.8158 8.58236 22.6794 8.62111 22.5235C8.65986 22.3677 8.71798 22.1728 8.75673 21.978C9.91921 18.5488 11.0817 15.139 12.2248 11.6903C12.2442 11.6318 12.2442 11.5734 12.2442 11.4955C12.2442 11.4175 12.2248 11.3396 12.186 11.2616C12.1473 11.2032 12.1085 11.1447 12.0698 11.1058C12.031 11.0668 11.9729 11.0473 11.9148 11.0473C11.8567 11.0278 11.7986 11.0278 11.7211 11.0278C9.62859 11.0278 7.53613 11.0278 5.42429 11.0278C5.36617 11.0278 5.32742 11.0278 5.2693 11.0473C5.21117 11.0668 5.15305 11.0668 5.1143 11.0863C5.05618 11.1058 5.01743 11.1447 4.9593 11.1642C4.92055 11.1837 4.86243 11.2227 4.82368 11.2811C4.78493 11.3201 4.72681 11.3785 4.70743 11.437C4.62993 11.476 4.61056 11.5344 4.59118 11.5929Z" fill="#EC1B2A"/>
<path fill-rule="evenodd" clip-rule="evenodd" d="M22.2412 16.4052C22.1831 16.4052 22.125 16.4052 22.0668 16.4246C22.0087 16.4441 21.9506 16.4636 21.8925 16.4831C21.8343 16.5026 21.7956 16.5415 21.7762 16.561C21.7375 16.5805 21.6987 16.6195 21.6793 16.6779C21.66 16.7169 21.6212 16.7559 21.6018 16.8143C20.2844 21.0814 18.9863 25.3679 17.6688 29.635C17.6494 29.6739 17.6494 29.7324 17.6494 29.7713C17.6494 29.8103 17.6494 29.8493 17.6688 29.8883C17.6882 29.9272 17.7075 29.9662 17.7269 30.0052C17.7657 30.0441 17.8044 30.0636 17.8432 30.1026C17.8819 30.1416 17.9207 30.1416 17.9594 30.1416C17.9982 30.1416 18.0175 30.161 18.0563 30.161C20.0519 30.161 22.0668 30.161 24.0818 30.161C24.1399 30.161 24.198 30.161 24.2562 30.1416C24.3143 30.1221 24.3724 30.1026 24.4112 30.0636C24.4499 30.0246 24.508 30.0052 24.5274 29.9467C24.5662 29.8883 24.6049 29.7908 24.6437 29.7129C25.9805 25.4458 27.3367 21.1593 28.6736 16.8923C28.693 16.8533 28.693 16.8143 28.693 16.7754C28.693 16.7364 28.693 16.6974 28.693 16.6584C28.693 16.6195 28.6736 16.6 28.6542 16.561C28.6348 16.5415 28.6155 16.5026 28.5767 16.4831C28.538 16.4636 28.5186 16.4441 28.4798 16.4441C28.4605 16.4441 28.4217 16.4246 28.383 16.4246C26.3486 16.4052 24.2949 16.4052 22.2412 16.4052Z" fill="#EC1B2A"/>
<path fill-rule="evenodd" clip-rule="evenodd" d="M40.2602 23.4197C39.059 25.9722 33.421 26.2839 34.6222 22.8742C34.9903 21.8415 36.3659 20.9063 37.7996 20.7893C39.369 20.653 41.074 21.6661 40.2602 23.4197ZM46.5182 22.8352C48.2426 16.8146 39.5821 12.8398 31.6385 18.5487C27.8217 21.2959 26.4848 26.7126 30.476 29.1481C32.491 30.3951 34.5253 30.6679 37.3153 30.2197C40.8608 29.6742 45.3557 26.8684 46.5182 22.8352Z" fill="#EC1B2A"/>
<path d="M26.849 14.9339C29.0701 14.4198 30.604 12.8384 30.2752 11.4018C29.9464 9.96511 27.8793 9.21724 25.6583 9.73135C23.4372 10.2455 21.9033 11.8269 22.2321 13.2635C22.5609 14.7002 24.628 15.448 26.849 14.9339Z" fill="#EC1B2A"/>
<path fill-rule="evenodd" clip-rule="evenodd" d="M50.3545 16.3272C48.9789 20.7111 47.6227 25.1146 46.2471 29.4985C46.2278 29.5765 46.2084 29.6544 46.2278 29.7323C46.2278 29.8103 46.2471 29.8687 46.2859 29.9272C46.3052 29.9856 46.344 30.0246 46.4021 30.0636C46.4409 30.1025 46.499 30.122 46.5377 30.122C46.5765 30.1415 46.6152 30.1415 46.654 30.1415C48.6496 30.1415 50.6258 30.1415 52.6214 30.1415C52.6795 30.1415 52.7376 30.1415 52.7958 30.122C52.8539 30.1025 52.9314 30.083 52.9895 30.0636C53.0476 30.0441 53.0864 30.0246 53.1251 29.9856C53.1639 29.9467 53.2026 29.9077 53.222 29.8687C53.2414 29.8297 53.2607 29.7713 53.2801 29.7323C54.0357 27.1604 54.7913 24.5885 55.5276 22.0166C55.5857 21.8802 55.6245 21.7438 55.7213 21.6658C55.8182 21.5879 55.9538 21.5489 56.1282 21.51C56.3219 21.471 56.5738 21.4515 56.9032 21.4125C57.2326 21.3931 57.6394 21.3736 57.9494 21.3736C58.2594 21.3541 58.4725 21.3541 58.6469 21.3931C58.8213 21.432 58.9181 21.471 58.9956 21.51C59.0731 21.5684 59.1119 21.6074 59.17 21.6853C59.2088 21.7633 59.2669 21.8607 59.2863 22.0166C59.3056 22.1724 59.3056 22.3673 59.2863 22.5426C59.2669 22.718 59.2088 22.8544 59.1313 23.0687C59.0538 23.283 58.9763 23.5753 58.6275 24.6664C58.2788 25.7575 57.6782 27.6475 57.0969 29.557C57.0776 29.5959 57.0776 29.6349 57.0776 29.6739C57.0776 29.7128 57.0776 29.7713 57.0776 29.8103C57.0776 29.8492 57.0969 29.9077 57.1357 29.9467C57.1744 29.9856 57.1938 30.0246 57.2519 30.0636C57.2907 30.083 57.3488 30.1025 57.3875 30.122C57.4263 30.122 57.465 30.1415 57.5038 30.1415C59.5381 30.1415 61.5918 30.1415 63.6262 30.1415C63.7037 30.1415 63.7812 30.1415 63.8199 30.122C63.878 30.1025 63.9362 30.083 63.9749 30.0441C64.0137 30.0051 64.0524 29.9661 64.0912 29.9272C64.1105 29.8882 64.1493 29.8492 64.1493 29.8103C64.8468 27.4722 65.5636 25.1535 66.2611 22.8154C66.2999 22.6595 66.358 22.4842 66.4161 22.2114C66.4743 21.9386 66.513 21.5684 66.5324 21.2762C66.5518 20.9839 66.5518 20.7501 66.5324 20.4578C66.513 20.1656 66.4743 19.8148 66.4161 19.5615C66.358 19.2888 66.3193 19.0939 66.2418 18.9186C66.1643 18.7432 66.0674 18.5873 65.9511 18.412C65.8349 18.2171 65.6799 17.9638 65.5249 17.7495C65.3505 17.5352 65.1568 17.3403 64.9049 17.1455C64.653 16.9507 64.3624 16.7558 64.0912 16.5999C63.8199 16.4441 63.5874 16.3661 63.3356 16.2687C63.1031 16.1713 62.8512 16.0739 62.5412 15.9959C62.2506 15.918 61.8825 15.879 61.34 15.8401C60.7975 15.8206 60.0806 15.8206 59.48 15.8401C58.8794 15.8595 58.4144 15.8985 57.9688 15.957C57.5425 16.0154 57.1744 16.0933 56.8257 16.1713C56.4769 16.2492 56.1669 16.3272 55.8376 16.4246C55.5082 16.522 55.1788 16.5999 54.8301 16.6584C54.4813 16.6974 54.1132 16.6974 53.842 16.6779C53.5901 16.6584 53.4351 16.6194 53.2414 16.561C53.0476 16.522 52.8345 16.4635 52.6408 16.4246C52.447 16.3856 52.2726 16.3466 52.0595 16.3272C51.8464 16.3077 51.5945 16.2882 51.2845 16.2882C51.0133 16.3077 50.6645 16.3272 50.3545 16.3272Z" fill="#EC1B2A"/>
<path fill-rule="evenodd" clip-rule="evenodd" d="M128.085 16.0935C128.046 16.0935 128.007 16.0935 127.969 16.113C127.93 16.1325 127.891 16.1325 127.852 16.1519C127.814 16.1714 127.794 16.2104 127.755 16.2299C127.736 16.2494 127.717 16.2883 127.697 16.3273C127.678 16.3663 127.659 16.4052 127.659 16.4442C126.302 20.8671 124.965 25.2901 123.609 29.713C123.609 29.752 123.59 29.7909 123.59 29.8299C123.59 29.8689 123.609 29.9078 123.609 29.9468C123.609 29.9858 123.648 30.0247 123.687 30.0442C123.725 30.0637 123.764 30.0832 123.803 30.1027C123.842 30.1222 123.88 30.1222 123.919 30.1222C126.012 30.1222 128.104 30.1222 130.197 30.1222C130.255 30.1222 130.313 30.1222 130.352 30.1027C130.41 30.0832 130.448 30.0637 130.487 30.0247C130.526 29.9858 130.545 29.9468 130.565 29.9078C130.584 29.8689 130.584 29.8299 130.603 29.7909C131.979 25.3485 133.355 20.8866 134.73 16.4442C134.73 16.4247 134.75 16.3858 134.75 16.3663C134.75 16.3468 134.75 16.3078 134.73 16.2688C134.711 16.2494 134.711 16.2104 134.692 16.1909C134.672 16.1714 134.633 16.1519 134.614 16.1325C134.575 16.113 134.556 16.113 134.498 16.113C134.459 16.113 134.42 16.113 134.382 16.113C132.308 16.074 130.197 16.074 128.085 16.0935Z" fill="#EC1B2A"/>
<path d="M132.824 14.6975C135.045 14.1833 136.579 12.6019 136.25 11.1653C135.921 9.72866 133.854 8.98079 131.633 9.4949C129.412 10.009 127.878 11.5904 128.207 13.0271C128.536 14.4637 130.603 15.2116 132.824 14.6975Z" fill="#EC1B2A"/>
<path fill-rule="evenodd" clip-rule="evenodd" d="M116.595 22.3088C116.13 23.8676 115.219 26.8292 114.328 29.8103C114.328 29.8297 114.328 29.8492 114.328 29.8882C114.328 29.9272 114.348 29.9661 114.367 30.0051C114.386 30.0441 114.425 30.0636 114.464 30.083C114.503 30.1025 114.522 30.1025 114.561 30.1025C114.58 30.1025 114.599 30.1025 114.619 30.1025C116.711 30.1025 118.804 30.1025 120.896 30.1025C120.935 30.1025 120.974 30.1025 121.012 30.083C121.051 30.083 121.071 30.0636 121.109 30.0636C121.148 30.0441 121.167 30.0441 121.226 30.0051C121.264 29.9856 121.303 29.9467 121.322 29.9077C121.342 29.8687 121.381 29.8297 121.4 29.7908C122.795 25.3289 124.171 20.8475 125.566 16.3856C125.585 16.3272 125.585 16.2687 125.585 16.2297C125.566 16.1713 125.546 16.1323 125.507 16.1128C125.469 16.0933 125.449 16.0933 125.411 16.0933C124.636 16.0933 123.88 16.0933 123.376 16.0739C122.872 16.0544 122.621 16.0154 122.388 15.957C122.156 15.8985 121.942 15.8595 121.71 15.7816C121.477 15.7037 121.245 15.6257 121.032 15.5478C120.819 15.4699 120.644 15.4309 120.373 15.3529C120.082 15.275 119.714 15.1776 119.385 15.1191C119.056 15.0412 118.784 15.0022 118.416 14.9438C118.048 14.8853 117.564 14.8464 117.118 14.8269C116.673 14.8074 116.246 14.8074 115.82 14.8269C115.374 14.8464 114.909 14.9048 114.561 14.9633C114.193 15.0217 113.941 15.0802 113.689 15.1386C113.437 15.2166 113.185 15.2945 112.933 15.3919C112.681 15.4893 112.43 15.5868 112.178 15.7037C111.926 15.8206 111.655 15.957 111.364 16.1128C111.073 16.2687 110.763 16.4441 110.453 16.6779C110.143 16.9117 109.814 17.1845 109.485 17.4767C109.155 17.769 108.826 18.0807 108.516 18.3925C108.206 18.7237 107.896 19.0744 107.605 19.5031C107.315 19.9317 107.043 20.4189 106.811 20.867C106.578 21.3151 106.385 21.7243 106.21 22.075C106.055 22.4452 105.92 22.7959 105.784 23.2636C105.648 23.7312 105.513 24.3352 105.455 24.8613C105.397 25.3679 105.397 25.7965 105.416 26.1083C105.435 26.4395 105.493 26.6733 105.532 26.9071C105.59 27.1214 105.629 27.3163 105.687 27.4916C105.745 27.667 105.784 27.8229 105.842 27.9593C105.9 28.1151 105.978 28.2515 106.055 28.3879C106.133 28.5438 106.23 28.6802 106.346 28.836C106.462 28.9919 106.578 29.1283 106.695 29.2452C106.811 29.3621 106.908 29.4595 107.024 29.557C107.14 29.6544 107.295 29.7518 107.47 29.8492C107.644 29.9467 107.838 30.0441 108.07 30.122C108.303 30.1999 108.555 30.2389 108.806 30.2779C109.058 30.2974 109.31 30.2974 109.562 30.2974C109.814 30.2974 110.027 30.2974 110.24 30.2779C110.434 30.2584 110.628 30.1999 110.841 30.122C111.054 30.0441 111.306 29.9467 111.519 29.8492C111.732 29.7518 111.926 29.6544 112.158 29.518C112.371 29.4011 112.623 29.2452 112.836 29.1088C113.05 28.953 113.243 28.8166 113.437 28.6412C113.631 28.4658 113.824 28.271 113.96 28.1151C114.115 27.9398 114.193 27.8034 114.309 27.6475C114.406 27.4916 114.503 27.3552 114.599 27.1799C114.696 27.0045 114.793 26.8292 114.871 26.6343C114.948 26.4395 114.987 26.2446 115.045 26.0498C114.948 26.1083 114.851 26.1472 114.716 26.2057C114.58 26.2641 114.425 26.3031 114.193 26.381C113.96 26.459 113.65 26.5564 113.359 26.5954C113.069 26.6343 112.836 26.6343 112.643 26.6148C112.449 26.5954 112.294 26.5564 112.139 26.4785C111.984 26.4005 111.829 26.3226 111.693 26.1862C111.558 26.0693 111.461 25.9134 111.383 25.7575C111.306 25.6017 111.267 25.4458 111.267 25.212C111.248 24.9782 111.248 24.6664 111.286 24.3936C111.306 24.1209 111.364 23.9065 111.403 23.6922C111.461 23.4584 111.5 23.2246 111.577 22.9908C111.655 22.757 111.751 22.5037 111.868 22.2309C111.984 21.9581 112.139 21.6658 112.294 21.3736C112.468 21.0813 112.662 20.7891 112.933 20.4773C113.204 20.1656 113.534 19.8148 113.844 19.581C114.154 19.3472 114.406 19.1913 114.658 19.0939C114.909 18.9965 115.161 18.938 115.374 18.9186C115.607 18.8991 115.82 18.8991 116.033 18.9186C116.246 18.938 116.44 18.9965 116.576 19.0744C116.731 19.1524 116.808 19.2303 116.905 19.3277C116.983 19.4252 117.06 19.5226 117.099 19.6395C117.157 19.7564 117.176 19.9123 117.196 20.0487C117.215 20.2045 117.215 20.3409 117.196 20.4968C117.099 20.6137 117.079 20.7696 116.595 22.3088Z" fill="#EC1B2A"/>
<path fill-rule="evenodd" clip-rule="evenodd" d="M137.017 16.0935C135.622 20.5944 134.227 25.0952 132.832 29.6156C132.812 29.674 132.813 29.7325 132.813 29.7715C132.813 29.8299 132.832 29.8884 132.871 29.9468C132.89 30.0053 132.948 30.0247 133.006 30.0637C133.064 30.0832 133.142 30.1027 133.181 30.1027C133.239 30.1027 133.258 30.1027 133.297 30.1027C135.254 30.1027 137.191 30.1027 139.148 30.1027C139.206 30.1027 139.245 30.1027 139.322 30.0832C139.38 30.0637 139.477 30.0442 139.574 29.9858C139.652 29.9468 139.749 29.8689 139.807 29.7909C139.865 29.713 139.904 29.6156 139.923 29.5182C140.543 27.3554 141.163 25.1927 141.783 23.0494C141.841 22.874 141.899 22.6792 141.977 22.5428C142.054 22.4064 142.132 22.27 142.229 22.1726C142.325 22.0752 142.422 21.9778 142.519 21.8998C142.616 21.8219 142.713 21.7439 142.81 21.705C142.926 21.6465 143.023 21.5881 143.159 21.5491C143.294 21.5101 143.449 21.4517 143.585 21.4322C143.74 21.4127 143.875 21.3737 144.011 21.3737C144.147 21.3737 144.282 21.3932 144.399 21.3932C144.515 21.4127 144.592 21.4322 144.709 21.4712C144.825 21.5101 144.941 21.5491 145.077 21.6076C146.162 20.2826 147.247 18.9577 148.332 17.6328C148.273 17.4964 148.235 17.36 148.157 17.2236C148.08 17.0872 147.983 16.9508 147.867 16.8144C147.731 16.678 147.576 16.5416 147.402 16.4247C147.227 16.3078 147.053 16.2104 146.859 16.152C146.665 16.074 146.491 16.0156 146.259 15.9766C146.026 15.9181 145.755 15.8792 145.367 15.8597C144.98 15.8402 144.476 15.8597 144.03 15.8987C143.585 15.9376 143.178 16.0156 142.79 16.0545C142.403 16.113 142.015 16.1714 141.628 16.1909C141.26 16.2299 140.872 16.2494 140.485 16.2494C140.117 16.2494 139.729 16.2494 139.439 16.2299C139.148 16.2104 138.935 16.152 138.567 16.1325C138.16 16.0935 137.598 16.0935 137.017 16.0935Z" fill="#EC1B2A"/>
<path fill-rule="evenodd" clip-rule="evenodd" d="M100.688 10.2677C100.611 10.6379 100.262 11.125 100.088 11.4563C99.9714 11.3783 99.797 11.1445 99.6808 11.0081C99.5064 10.8328 99.4095 10.6769 99.3127 10.4626C99.6033 10.4626 99.8358 10.4431 100.049 10.4041C100.34 10.3457 100.436 10.2872 100.688 10.2677ZM92.0665 34.2334C92.0278 33.9996 91.989 33.7073 91.9503 33.415C92.2022 33.3955 92.454 33.3761 92.6865 33.3566H92.7059H92.7253C93.1322 33.3371 93.8103 33.2202 94.9534 32.6357C95.6509 32.2655 96.6002 31.2912 97.0458 30.6483C97.7627 29.6351 98.1308 28.3491 98.1308 27.0437V27.0242V27.0047V26.9657C98.1308 26.6345 98.0921 26.2838 98.0533 25.972C98.0533 25.9526 98.0533 25.9136 98.0339 25.8941V25.8746C97.9371 25.2706 97.7433 24.6861 97.4721 24.121C96.6777 22.4649 95.1471 21.3153 93.4228 20.8477C93.074 20.7503 92.7059 20.6918 92.3378 20.6528H92.2797H92.2215C91.1947 20.5749 90.1291 20.7503 89.141 21.1984C89.0441 21.2374 88.9472 21.2763 88.8697 21.3348C88.1141 21.7245 87.436 22.2505 86.8935 22.8935L86.8741 22.913L86.7579 22.8546C84.7817 21.8998 81.8755 16.3858 81.1974 13.8918C80.3449 10.7938 79.8024 5.51357 80.4999 2.29867C80.6161 1.79208 80.7324 1.09065 80.7905 0.856834C78.7949 -0.409643 76.0437 1.32446 75.7337 5.24079C75.23 11.5732 79.1049 18.1978 83.5998 22.1531C84.2586 22.7182 84.7623 23.0884 85.111 23.3806L86.0798 24.0821C85.9442 24.3548 85.8085 24.6471 85.7117 24.9394C85.0142 24.5302 84.4136 24.1405 83.6579 23.556C82.9992 23.0689 82.3986 22.6013 81.7786 22.0752C80.4224 20.9061 79.7055 20.1073 78.4849 18.6654C76.9543 16.8924 74.3387 12.45 74.2031 9.37145C71.2388 8.98177 69.3982 14.5932 74.9394 19.7371C78.5237 23.0689 80.8874 24.0626 85.4404 25.9915C85.4017 26.2253 85.3823 26.4591 85.3629 26.693V26.7514C84.6267 26.8099 81.8949 25.9331 81.1199 25.6603C73.99 23.0494 72.3238 19.9514 71.51 19.0746C70.3476 19.9124 70.1538 22.309 71.1807 23.6924C72.9244 26.05 76.7218 27.3944 79.6668 27.7256C81.5074 27.9399 82.9217 28.0179 84.7623 27.9399L85.4404 27.8815C85.4792 28.1932 85.5567 28.505 85.6342 28.8167L85.5373 28.8362L85.421 28.8557C81.5461 29.6546 78.4655 29.4792 74.765 28.2907C73.6994 27.9594 72.3432 27.1411 72.1688 27.0437C71.8394 27.3165 71.2001 32.0706 77.6324 32.1291C79.2405 32.1485 80.868 31.8173 82.263 31.3692C83.5805 30.9405 84.7623 30.4339 86.0992 29.9079C86.2348 30.1612 86.3704 30.395 86.5254 30.6288L86.3316 30.8041C86.2929 30.8431 86.2348 30.8821 86.196 30.9405C85.3048 31.7004 83.1155 32.6357 81.9917 33.0059C79.4537 33.8242 78.3493 33.6878 75.8306 33.3955C76.1406 36.7663 79.8799 36.3571 82.0111 35.4998C84.1617 34.6425 85.5954 33.0253 87.1841 31.4276C87.3585 31.6225 87.5523 31.7978 87.7654 31.9537C87.6297 32.2655 87.4748 32.5187 87.3004 32.772C86.3704 34.1165 84.0842 35.87 82.728 36.4935C81.333 37.1365 80.5386 37.1755 80.3255 37.2145C80.4611 38.0912 81.3717 38.5589 82.4373 38.5589C85.6535 38.5394 87.7266 34.4087 88.3079 33.2202L88.6372 32.5577C88.8504 32.6746 89.0828 32.7915 89.3153 32.889L89.0828 33.6878C89.0635 33.7268 89.0635 33.7657 89.0441 33.8047C88.9085 34.2528 88.6372 34.8374 88.1916 35.5778C86.5641 38.3445 85.0723 38.7537 84.9173 38.8511C85.2854 39.5136 86.4285 39.689 87.281 39.3382C89.3735 38.4809 89.6835 35.3829 90.0516 33.6488L90.1485 33.1812C90.3809 33.2397 90.5941 33.2981 90.8266 33.3176V33.3371C91.2141 36.9612 89.5866 38.7147 89.4897 38.8901C90.5941 39.0849 91.5628 38.8706 92.0665 38.0328C92.5703 37.2145 92.3184 35.8311 92.2022 34.8179C93.3259 34.7789 94.6434 34.3892 95.4959 34.1165C98.2083 33.2007 100.01 30.8821 100.766 28.1543C100.843 27.901 100.96 27.6282 101.018 27.3554C101.444 27.3554 101.928 27.3165 101.928 26.7514C101.928 26.6345 101.812 26.2838 101.773 26.1864C101.599 25.9136 100.882 25.4654 100.882 24.7056C100.882 24.5497 100.979 24.2769 101.018 24.1016C101.366 24.0821 101.87 23.7119 101.87 23.3027C101.87 22.6987 100.863 22.4064 100.495 22.0362C100.126 21.666 99.6808 20.7697 99.6808 20.2047C99.6808 19.8735 99.5064 19.0162 100.01 19.0162C100.533 19.0162 102.645 20.0878 102.645 16.8339C101.831 17.2236 101.231 17.4964 100.398 16.8534C99.4289 16.0935 100.243 13.4826 102.044 13.4826C102.432 13.4826 102.723 13.5606 102.916 13.7944C103.091 13.9892 103.207 14.3984 103.226 14.7491C103.594 14.5153 103.866 14.1841 104.118 13.8139C104.273 13.5801 104.602 12.7227 104.602 12.372C104.602 12.1382 104.486 12.0408 104.486 11.846C104.505 11.5342 104.951 11.125 104.408 10.7743C103.982 10.5015 103.129 11.0081 101.696 10.2677C101.502 10.1703 101.289 10.0339 101.134 9.97546C101.134 9.60526 101.27 9.54681 101.27 9.17661C101.27 8.59208 99.487 7.87117 98.867 7.50096C98.4408 7.22819 98.0533 6.95541 97.7046 6.62417C97.2396 6.13707 97.0071 5.74738 96.9296 5.49409C96.8327 5.45512 96.7358 5.41615 96.6002 5.41615C96.0577 5.41615 95.6509 5.82532 95.554 6.27346C95.4377 6.15655 95.3409 6.05913 95.1859 5.94222C95.0115 5.82532 94.8371 5.7279 94.6627 5.64996C93.4615 5.12389 92.6478 5.1044 91.3497 4.42245C90.8653 4.75368 90.4778 5.26028 90.6328 5.94222C90.0322 5.61099 89.4703 5.66945 88.831 5.76687C88.4435 5.82532 87.1841 6.00068 86.8548 5.98119C86.5448 5.98119 86.0992 5.92274 85.8473 5.86429C85.8279 6.23449 85.6535 6.52675 85.6535 6.99437C85.6535 7.44251 85.7892 7.71529 85.8473 7.85168C85.111 7.85168 84.7236 7.85168 84.1423 7.96859C83.5223 8.08549 83.0767 8.12446 82.4373 8.10498C82.2436 8.90383 82.2242 9.29352 82.6505 10.0729C82.8055 10.3652 83.1542 10.8717 83.2898 11.0081C82.9605 11.125 82.3792 11.2419 82.0499 11.2809C82.0499 12.2162 82.4567 13.5411 82.6892 14.3984C83.3673 17.0288 84.6267 19.172 86.2154 21.2374C86.3704 21.4322 86.5254 21.6076 86.6804 21.7634C86.8354 21.6076 86.971 21.5101 87.1454 21.3738C88.6372 20.2047 90.0516 19.7176 92.0665 19.7176C93.0353 19.7176 94.2171 20.0683 94.8759 20.3995C95.7671 20.8477 96.2902 21.2179 96.949 21.8803C97.8983 22.8351 98.4796 23.9652 98.8089 25.2901C99.487 27.9789 98.5377 31.1743 96.2902 32.7915C95.9027 33.0838 95.5346 33.2786 95.089 33.5124C94.3721 33.8632 93.0934 34.1944 92.0859 34.2334H92.0665ZM93.3453 9.41042C93.3453 9.66372 93.5778 10.1119 93.4809 10.1313C92.9578 10.0924 92.6865 9.58578 92.6865 9.00125C92.6865 7.92962 94.6627 7.55942 94.9921 8.9428C94.7596 8.82589 94.2753 8.67002 94.004 8.67002C93.6746 8.67002 93.3259 9.07919 93.3453 9.41042Z" fill="#EC1B2A"/>
</g>
<defs>
<clipPath id="clip0_476_3877">
<rect width="148.352" height="39.0659" fill="white" transform="translate(0 0.467041)"/>
</clipPath>
</defs>
</svg>
