<svg width="50" height="60" viewBox="0 0 50 60" fill="none" xmlns="http://www.w3.org/2000/svg">
<path d="M8.10072 18.9237H11.7257V58.8737H8.10072V18.9237Z" fill="#111111"/>
<path fill-rule="evenodd" clip-rule="evenodd" d="M41.0969 56.8439C42.8247 56.8813 43.8391 56.4315 44.4357 55.859C45.0324 55.2866 45.5318 54.2838 45.5923 52.5306C45.6534 50.7583 45.2457 48.4548 44.259 45.7293C42.2897 40.2896 38.2278 33.7591 32.4512 27.5559C26.7347 21.4172 20.2832 17.1166 14.7598 14.9765C11.9932 13.9046 9.58414 13.4228 7.69091 13.4369C5.78741 13.4511 4.67683 13.9541 4.07363 14.5328C3.51957 15.0645 3.08336 15.9575 3.10812 17.5907C3.13357 19.2699 3.65813 21.4794 4.79219 24.1414C7.05313 29.4487 11.4336 35.8531 17.2708 42.1214C23.0474 48.3246 29.2424 52.8084 34.482 55.1102C37.1074 56.2635 39.3502 56.8062 41.0969 56.8439ZM15.0128 44.288C27.0024 57.1631 41.1311 63.3698 46.5701 58.1511C52.0092 52.9324 46.6989 38.2645 34.7093 25.3894C22.7197 12.5143 7.37825 7.0221 1.93922 12.2408C-3.49981 17.4595 3.02319 31.4129 15.0128 44.288Z" fill="white"/>
<path fill-rule="evenodd" clip-rule="evenodd" d="M42.4245 53.4275C43.8779 53.4589 44.4481 53.0796 44.6632 52.8732C44.8782 52.6669 45.2834 52.1103 45.3343 50.6356C45.3862 49.1323 45.0389 47.0395 44.0954 44.4334C42.2146 39.2383 38.2843 32.8854 32.6169 26.7994C27.0395 20.8101 20.7787 16.6551 15.5004 14.61C12.8541 13.5847 10.6416 13.1618 8.99695 13.1741C7.33694 13.1864 6.6604 13.6232 6.43547 13.8391C6.28426 13.9841 5.93601 14.3985 5.95615 15.7267C5.97732 17.1237 6.42409 19.1201 7.5128 21.6757C9.67942 26.7616 13.936 33.0146 19.6945 39.1983C25.3619 45.2844 31.3896 49.6248 36.3937 51.8231C38.904 52.9259 40.9429 53.3955 42.4245 53.4275ZM16.3074 42.4482C28.2971 55.3233 42.4258 61.53 47.8648 56.3113C53.3038 51.0926 47.9935 36.4246 36.0039 23.5496C24.0143 10.6745 8.67289 5.18229 3.23386 10.401C-2.20517 15.6197 4.31783 29.5731 16.3074 42.4482Z" fill="#111111"/>
<path d="M37.3597 15.2489C22.5743 15.3742 22.47 15.4801 22.3465 30.4882C22.2136 15.4801 22.1093 15.3742 7.32393 15.2489C22.1093 15.114 22.2136 15.0081 22.3465 0C22.47 15.0081 22.5743 15.114 37.3597 15.2489Z" fill="#F74E28"/>
<path d="M39.4311 10.2503H43.0561V50.4632H39.4311V10.2503Z" fill="#111111"/>
<path fill-rule="evenodd" clip-rule="evenodd" d="M37.8775 10.2503H39.4311V50.4632H37.8775V10.2503Z" fill="white"/>
</svg>
