<svg
  width="40"
  height="40"
  viewBox="0 0 40 40"
  fill="none"
  xmlns="http://www.w3.org/2000/svg"
>
  <path
    d="M8.73373 12.6158H11.1504V39.2492H8.73373V12.6158Z"
    fill="#111111"
  />
  <path
    fill-rule="evenodd"
    clip-rule="evenodd"
    d="M30.7312 37.896C31.883 37.9208 32.5593 37.621 32.9571 37.2394C33.3548 36.8577 33.6878 36.1892 33.7281 35.0204C33.7689 33.8389 33.4971 32.3032 32.8393 30.4862C31.5264 26.8597 28.8185 22.5061 24.9674 18.3706C21.1564 14.2782 16.8554 11.411 13.1731 9.98434C11.3287 9.26975 9.72268 8.94855 8.46052 8.95795C7.19153 8.96741 6.45114 9.30272 6.049 9.68856C5.67963 10.043 5.38882 10.6384 5.40533 11.7272C5.4223 12.8466 5.772 14.3196 6.52805 16.0943C8.03534 19.6325 10.9556 23.9021 14.8471 28.0809C18.6982 32.2164 22.8282 35.2056 26.3213 36.7401C28.0715 37.509 29.5667 37.8708 30.7312 37.896ZM13.3418 29.5253C21.3349 38.1087 30.754 42.2465 34.38 38.7674C38.006 35.2882 34.4658 25.5096 26.4728 16.9262C18.4797 8.34285 8.25209 4.6814 4.62607 8.16054C1.00005 11.6397 5.34871 20.9419 13.3418 29.5253Z"
    fill="white"
  />
  <path
    fill-rule="evenodd"
    clip-rule="evenodd"
    d="M31.6163 35.6183C32.5852 35.6393 32.9653 35.3864 33.1087 35.2488C33.2521 35.1112 33.5222 34.7402 33.5561 33.7571C33.5907 32.7549 33.3592 31.3597 32.7302 29.6223C31.4763 26.1589 28.8561 21.9236 25.0778 17.8663C21.3596 13.8734 17.1857 11.1034 13.6668 9.74C11.9026 9.05646 10.4276 8.77454 9.33122 8.78271C8.22454 8.79096 7.77352 9.08216 7.62356 9.22604C7.52276 9.32276 7.29059 9.59897 7.30402 10.4844C7.31813 11.4158 7.61598 12.7467 8.34178 14.4505C9.7862 17.8411 12.6239 22.0097 16.4629 26.1322C20.2412 30.1896 24.2596 33.0832 27.5957 34.5488C29.2693 35.2839 30.6285 35.597 31.6163 35.6183ZM14.2049 28.2988C22.198 36.8822 31.6171 41.02 35.2431 37.5408C38.8691 34.0617 35.3289 24.2831 27.3359 15.6997C19.3428 7.11631 9.11518 3.45486 5.48916 6.934C1.86314 10.4131 6.21181 19.7154 14.2049 28.2988Z"
    fill="#111111"
  />
  <path
    d="M28.2397 10.1659C18.3828 10.2495 18.3132 10.3201 18.2309 20.3255C18.1423 10.3201 18.0728 10.2495 8.21587 10.1659C18.0728 10.076 18.1423 10.0054 18.2309 0C18.3132 10.0054 18.3828 10.076 28.2397 10.1659Z"
    fill="#F74E28"
  />
  <path
    d="M29.6206 6.83356H32.0373V33.6421H29.6206V6.83356Z"
    fill="#111111"
  />
  <path
    fill-rule="evenodd"
    clip-rule="evenodd"
    d="M28.5849 6.83356H29.6206V33.6421H28.5849V6.83356Z"
    fill="white"
  />
</svg>