<svg width="24" height="24" viewBox="0 0 24 24" fill="none" xmlns="http://www.w3.org/2000/svg">
<rect width="24" height="24" rx="12" fill="#111322"/>
<path d="M8.9375 9.81179V7.18679C8.9375 7.07075 8.9836 6.95947 9.06565 6.87743C9.14769 6.79538 9.25897 6.74929 9.375 6.74929C9.49104 6.74929 9.60232 6.79538 9.68436 6.87743C9.76641 6.95947 9.8125 7.07075 9.8125 7.18679V9.81179C9.8125 9.92782 9.76641 10.0391 9.68436 10.1211C9.60232 10.2032 9.49104 10.2493 9.375 10.2493C9.25897 10.2493 9.14769 10.2032 9.06565 10.1211C8.9836 10.0391 8.9375 9.92782 8.9375 9.81179ZM16.8125 7.18679V17.2493C16.8125 17.3653 16.7664 17.4766 16.6844 17.5586C16.6023 17.6407 16.491 17.6868 16.375 17.6868C16.259 17.6868 16.1477 17.6407 16.0656 17.5586C15.9836 17.4766 15.9375 17.3653 15.9375 17.2493V14.6243H13.3125C13.1965 14.6243 13.0852 14.5782 13.0031 14.4961C12.9211 14.4141 12.875 14.3028 12.875 14.1868C12.8953 13.1388 13.0277 12.096 13.2698 11.0762C13.8047 8.86186 14.8186 7.37765 16.2027 6.78483C16.2693 6.75634 16.3418 6.74479 16.4139 6.75122C16.486 6.75766 16.5554 6.78188 16.6158 6.82171C16.6762 6.86155 16.7258 6.91575 16.7602 6.97946C16.7945 7.04318 16.8125 7.11441 16.8125 7.18679ZM15.9375 7.94694C14.1782 9.29061 13.8337 12.5637 13.7664 13.7493H15.9375V7.94694ZM11.5565 7.11515C11.5479 7.0577 11.528 7.00253 11.4979 6.95287C11.4678 6.9032 11.4281 6.86003 11.3811 6.82586C11.3341 6.7917 11.2808 6.76724 11.2243 6.75389C11.1678 6.74055 11.1091 6.73859 11.0519 6.74814C10.9946 6.75769 10.9397 6.77855 10.8906 6.80951C10.8415 6.84046 10.799 6.8809 10.7656 6.92845C10.7323 6.976 10.7087 7.02971 10.6963 7.08646C10.6839 7.14321 10.683 7.20185 10.6935 7.25897L11.125 9.84624C11.125 10.3104 10.9406 10.7555 10.6124 11.0837C10.2843 11.4119 9.83913 11.5962 9.375 11.5962C8.91088 11.5962 8.46576 11.4119 8.13757 11.0837C7.80938 10.7555 7.625 10.3104 7.625 9.84624L8.05594 7.25897C8.06647 7.20185 8.06551 7.14321 8.05314 7.08646C8.04076 7.02971 8.01721 6.976 7.98385 6.92845C7.9505 6.8809 7.90801 6.84046 7.85886 6.80951C7.80972 6.77855 7.7549 6.75769 7.69761 6.74814C7.64032 6.73859 7.5817 6.74055 7.52517 6.75389C7.46864 6.76724 7.41534 6.7917 7.36836 6.82586C7.32139 6.86003 7.28169 6.9032 7.25158 6.95287C7.22146 7.00253 7.20154 7.0577 7.19297 7.11515L6.75547 9.74015C6.75173 9.76384 6.7499 9.7878 6.75 9.81179C6.75088 10.4318 6.9709 11.0316 7.37118 11.5052C7.77147 11.9787 8.32625 12.2955 8.9375 12.3996V17.2493C8.9375 17.3653 8.9836 17.4766 9.06565 17.5586C9.14769 17.6407 9.25897 17.6868 9.375 17.6868C9.49104 17.6868 9.60232 17.6407 9.68436 17.5586C9.76641 17.4766 9.8125 17.3653 9.8125 17.2493V12.3996C10.4238 12.2955 10.9785 11.9787 11.3788 11.5052C11.7791 11.0316 11.9991 10.4318 12 9.81179C11.9999 9.78778 11.9979 9.76382 11.994 9.74015L11.5565 7.11515Z" fill="#F74E28"/>
</svg>
