<svg width="14" height="16" viewBox="0 0 14 16" fill="none" xmlns="http://www.w3.org/2000/svg">
  <path
    d="M2.9157 5.08267V1.58267C2.9157 1.42796 2.97715 1.27958 3.08655 1.17019C3.19595 1.06079 3.34432 0.999333 3.49903 0.999333C3.65374 0.999333 3.80211 1.06079 3.91151 1.17019C4.0209 1.27958 4.08236 1.42796 4.08236 1.58267V5.08267C4.08236 5.23738 4.0209 5.38575 3.91151 5.49514C3.80211 5.60454 3.65374 5.666 3.49903 5.666C3.34432 5.666 3.19595 5.60454 3.08655 5.49514C2.97715 5.38575 2.9157 5.23738 2.9157 5.08267ZM13.4157 1.58267V14.9993C13.4157 15.154 13.3542 15.3024 13.2448 15.4118C13.1354 15.5212 12.9871 15.5827 12.8324 15.5827C12.6777 15.5827 12.5293 15.5212 12.4199 15.4118C12.3105 15.3024 12.249 15.154 12.249 14.9993V11.4993H8.74903C8.59432 11.4993 8.44595 11.4379 8.33655 11.3285C8.22715 11.2191 8.1657 11.0707 8.1657 10.916C8.19278 9.51868 8.36927 8.12827 8.69215 6.7685C9.40528 3.8161 10.7572 1.83715 12.6027 1.04673C12.6914 1.00873 12.7881 0.993335 12.8842 1.00192C12.9804 1.0105 13.0728 1.04279 13.1534 1.0959C13.234 1.14901 13.3001 1.22128 13.3459 1.30623C13.3917 1.39119 13.4157 1.48617 13.4157 1.58267ZM12.249 2.59621C9.9033 4.38777 9.44393 8.75183 9.35424 10.3327H12.249V2.59621ZM6.40768 1.48714C6.39625 1.41055 6.36969 1.337 6.32954 1.27077C6.28939 1.20455 6.23645 1.14699 6.17382 1.10144C6.11119 1.05589 6.04012 1.02327 5.96475 1.00547C5.88937 0.98768 5.81121 0.985074 5.73482 0.997805C5.65844 1.01054 5.58535 1.03835 5.51982 1.07963C5.45429 1.1209 5.39764 1.17481 5.35317 1.23821C5.30869 1.30161 5.27729 1.37323 5.26079 1.4489C5.24429 1.52456 5.24302 1.60276 5.25705 1.67892L5.83236 5.1286C5.83236 5.74744 5.58653 6.34093 5.14895 6.77852C4.71136 7.2161 4.11787 7.46194 3.49903 7.46194C2.88019 7.46194 2.2867 7.2161 1.84911 6.77852C1.41153 6.34093 1.1657 5.74744 1.1657 5.1286L1.74028 1.67892C1.75431 1.60276 1.75304 1.52456 1.73654 1.4489C1.72004 1.37323 1.68863 1.30161 1.64416 1.23821C1.59969 1.17481 1.54304 1.1209 1.47751 1.07963C1.41198 1.03835 1.33889 1.01054 1.2625 0.997805C1.18612 0.985074 1.10796 0.98768 1.03258 1.00547C0.957212 1.02327 0.886138 1.05589 0.823507 1.10144C0.760876 1.14699 0.707941 1.20455 0.667791 1.27077C0.627641 1.337 0.601079 1.41055 0.589654 1.48714L0.00632051 4.98715C0.00132964 5.01874 -0.00110869 5.05068 -0.000971046 5.08267C0.000194508 5.9094 0.293553 6.70912 0.827266 7.3405C1.36098 7.97188 2.10069 8.39429 2.9157 8.53308V14.9993C2.9157 15.154 2.97715 15.3024 3.08655 15.4118C3.19595 15.5212 3.34432 15.5827 3.49903 15.5827C3.65374 15.5827 3.80211 15.5212 3.91151 15.4118C4.0209 15.3024 4.08236 15.154 4.08236 14.9993V8.53308C4.89737 8.39429 5.63708 7.97188 6.17079 7.3405C6.70451 6.70912 6.99786 5.9094 6.99903 5.08267C6.99893 5.05066 6.99624 5.01872 6.99101 4.98715L6.40768 1.48714Z"
    fill="white" />
</svg>
  