<svg width="21" height="20" viewBox="0 0 21 20" stroke="#111111" fill="none" xmlns="http://www.w3.org/2000/svg">
<path d="M2.41699 12.7506V7.50065C2.41699 4.58398 4.08366 3.33398 6.58366 3.33398H14.917C17.417 3.33398 19.0837 4.58398 19.0837 7.50065V12.5007C19.0837 15.4173 17.417 16.6673 14.917 16.6673H7.83366" stroke="currentColor" stroke-width="1.25" stroke-miterlimit="10" stroke-linecap="round" stroke-linejoin="round"/>
<path d="M10.7503 12.0827C11.9009 12.0827 12.8337 11.1499 12.8337 9.99935C12.8337 8.84876 11.9009 7.91602 10.7503 7.91602C9.59973 7.91602 8.66699 8.84876 8.66699 9.99935C8.66699 11.1499 9.59973 12.0827 10.7503 12.0827Z" stroke="currentColor" stroke-width="1.25" stroke-miterlimit="10" stroke-linecap="round" stroke-linejoin="round"/>
<path d="M16.167 7.91602V12.0827" stroke="currentColor" stroke-width="1.25" stroke-miterlimit="10" stroke-linecap="round" stroke-linejoin="round"/>
<path d="M8.25065 15.0013C8.25065 15.6263 8.07564 16.218 7.7673 16.718C7.1923 17.6846 6.13398 18.3346 4.91732 18.3346C3.70065 18.3346 2.64233 17.6846 2.06733 16.718C1.759 16.218 1.58398 15.6263 1.58398 15.0013C1.58398 13.1596 3.07565 11.668 4.91732 11.668C6.75898 11.668 8.25065 13.1596 8.25065 15.0013Z" stroke="currentColor" stroke-width="1.25" stroke-miterlimit="10" stroke-linecap="round" stroke-linejoin="round"/>
<path d="M5.81008 15.8677L4.05176 14.1094" stroke="currentColor" stroke-width="1.25" stroke-miterlimit="10" stroke-linecap="round" stroke-linejoin="round"/>
<path d="M5.78371 14.1328L4.02539 15.8911" stroke="currentColor" stroke-width="1.25" stroke-miterlimit="10" stroke-linecap="round" stroke-linejoin="round"/>
</svg>
