<svg width="20" height="20" viewBox="0 0 20 20" stroke="#111111" fill="none" xmlns="http://www.w3.org/2000/svg">
<path d="M7.91602 11.4575C7.91602 12.2659 8.54103 12.9159 9.30769 12.9159H10.8743C11.541 12.9159 12.0827 12.3492 12.0827 11.6409C12.0827 10.8825 11.7494 10.6076 11.2577 10.4326L8.74935 9.55755C8.25768 9.38255 7.92436 9.11588 7.92436 8.34922C7.92436 7.64922 8.46601 7.07422 9.13268 7.07422H10.6993C11.466 7.07422 12.091 7.72422 12.091 8.53255" stroke="currentColor" stroke-width="1.25" stroke-linecap="round" stroke-linejoin="round"/>
<path d="M9.99902 6.25V13.75" stroke="currentColor" stroke-width="1.25" stroke-linecap="round" stroke-linejoin="round"/>
<path d="M18.3337 9.99935C18.3337 14.5993 14.6003 18.3327 10.0003 18.3327C5.40033 18.3327 1.66699 14.5993 1.66699 9.99935C1.66699 5.39935 5.40033 1.66602 10.0003 1.66602"  stroke="currentColor" stroke-width="1.25" stroke-linecap="round" stroke-linejoin="round"/>
<path d="M18.3333 4.99935V1.66602H15"  stroke="currentColor" stroke-width="1.25" stroke-linecap="round" stroke-linejoin="round"/>
<path d="M14.167 5.83268L18.3337 1.66602"  stroke="currentColor" stroke-width="1.25" stroke-linecap="round" stroke-linejoin="round"/>
</svg>
