<svg width="16" height="16" viewBox="0 0 16 16" fill="none" xmlns="http://www.w3.org/2000/svg">
  <path d="M8 4.29297V6.51297" stroke="currentColor" strokeMiterlimit="10" strokeLinecap="round" />
  <path
    d="M8.01327 1.33398C5.55993 1.33398 3.57327 3.32065 3.57327 5.77398V7.17398C3.57327 7.62732 3.3866 8.30732 3.15327 8.69398L2.3066 10.1073C1.7866 10.9807 2.1466 11.954 3.1066 12.274C6.29327 13.334 9.73993 13.334 12.9266 12.274C13.8266 11.974 14.2133 10.9207 13.7266 10.1073L12.8799 8.69398C12.6466 8.30732 12.4599 7.62065 12.4599 7.17398V5.77398C12.4533 3.33398 10.4533 1.33398 8.01327 1.33398Z"
    stroke="currentColor" strokeMiterlimit="10" strokeLinecap="round" />
  <path
    d="M10.2203 12.5469C10.2203 13.7669 9.22027 14.7669 8.00027 14.7669C7.39361 14.7669 6.83361 14.5135 6.43361 14.1135C6.03361 13.7135 5.78027 13.1535 5.78027 12.5469"
    stroke="currentColor" strokeMiterlimit="10" />
</svg>
  