<svg width="90" height="20" viewBox="0 0 90 20" fill="none" xmlns="http://www.w3.org/2000/svg">
<g id="OCBC Bank of Singapore svg" clip-path="url(#clip0_1888_20524)">
<g id="layer1">
<g id="g21693">
<g id="g21652">
<g id="g74">
<path id="path76" d="M63.7178 11.8632C63.7178 12.7267 63.0975 13.2717 61.9023 13.2717C61.5029 13.2717 61.1477 13.2264 60.9268 13.2264V10.5454H61.725C62.9208 10.5454 63.7178 10.9091 63.7178 11.8632ZM63.5405 7.81841C63.5405 8.68188 62.9208 9.18159 61.636 9.18159H60.9268V6.68182C61.2366 6.68182 61.5913 6.63589 61.9901 6.63589C63.1429 6.63589 63.5405 7.13682 63.5405 7.81841ZM65.6676 11.8167C65.6676 10.8632 65.0927 9.90911 63.9841 9.68191V9.63599C64.8706 9.31815 65.4903 8.45407 65.4903 7.54529C65.4903 6.00023 64.3381 5.18146 62.3005 5.18146C61.1041 5.18146 59.8635 5.18146 59.0659 5.22678V14.7262C60.2629 14.7262 61.282 14.7715 61.8569 14.7715C64.7375 14.7715 65.6676 13.1811 65.6676 11.8167Z" fill="#EE2722"/>
</g>
<g id="g78">
<path id="path80" d="M70.5426 11.8179C70.5426 12.636 69.9211 13.4995 69.0363 13.4995C68.548 13.4995 68.2387 13.227 68.2387 12.772C68.2387 12.1816 68.6369 11.636 70.5426 11.636V11.8179ZM72.4034 14.7267C72.3593 14.1811 72.3593 13.4995 72.3593 12.9539V10.0003C72.3593 8.50055 71.6942 7.59177 69.4793 7.59177C68.548 7.59177 67.6614 7.77303 66.9533 8.00023L67.1301 9.54529C67.7062 9.18153 68.548 8.99965 69.1688 8.99965C70.1873 8.99965 70.5426 9.36402 70.5426 10.0909V10.4547C68.1497 10.4547 66.5098 11.3635 66.5098 13.0451C66.5098 14.1811 67.219 14.8633 68.5038 14.8633C69.567 14.8633 70.4094 14.317 70.7635 13.5448C70.7199 13.9092 70.6757 14.317 70.6757 14.7267H72.4034Z" fill="#EE2722"/>
</g>
<g id="g82">
<path id="path84" d="M80.1134 14.7266V9.81826C80.1134 8.59042 79.625 7.59161 78.0304 7.59161C76.8782 7.59161 76.0806 8.18257 75.6376 8.9995C75.7265 8.59042 75.7265 8.046 75.7265 7.72695H74.043V14.7266H75.8149V11.3633C75.8149 10.1361 76.5689 9.09074 77.4543 9.09074C78.1182 9.09074 78.3408 9.54575 78.3408 10.2733V14.7266H80.1134Z" fill="#EE2722"/>
</g>
<g id="g86">
<path id="path88" d="M88.0004 14.7266L85.3867 10.9536L87.8237 7.72695H85.6076L83.57 10.6358V4.45556H81.7969V14.7266H83.57V11.2733L85.7407 14.7266H88.0004Z" fill="#EE2722"/>
</g>
</g>
<g id="g21683">
<g id="g98">
<path id="path100" d="M28.0917 10.0003C28.0917 12.1369 26.8075 12.9097 25.7 12.9097C24.1054 12.9097 23.3962 11.7731 23.3962 9.90902C23.3962 7.95427 24.5484 7.04549 25.7436 7.04549C27.2505 7.04549 28.0917 8.04613 28.0917 10.0003ZM30.5299 9.81839C30.5299 6.49985 28.5346 5.04542 25.9209 5.04542C23.1741 5.04542 20.958 6.99956 20.958 10.0909C20.958 13.091 22.4643 14.9092 25.5669 14.9092C28.3138 14.9092 30.5299 12.9538 30.5299 9.81839Z" fill="#EE2722"/>
</g>
<g id="g102">
<path id="path104" d="M38.639 14.5005L38.3727 12.5458C37.8856 12.7276 37.1315 12.8636 36.6002 12.8636C34.7835 12.8636 33.9859 11.8182 33.9859 9.95596C33.9859 8.2284 34.8725 7.13774 36.5124 7.13774C37.1315 7.13774 37.7524 7.22776 38.3291 7.40964L38.5936 5.40958C37.9739 5.22831 37.2217 5.18238 36.556 5.18238C33.2331 5.18238 31.46 7.22776 31.46 10.3185C31.46 12.5004 32.4797 14.8643 36.1572 14.8643C36.9996 14.8643 37.8856 14.7271 38.639 14.5005Z" fill="#EE2722"/>
</g>
<g id="g106">
<path id="path108" d="M44.9755 11.8177C44.9755 12.5452 44.3994 12.9996 43.3797 12.9996C43.0257 12.9996 42.6705 12.9549 42.4938 12.9549V10.6823H43.2466C44.3105 10.6823 44.9755 11.0455 44.9755 11.8177ZM44.8424 7.90941C44.8424 8.63754 44.2663 9.04601 43.1576 9.04601H42.4938V6.9547H43.4239C44.3994 6.9547 44.8424 7.31845 44.8424 7.90941ZM47.4567 11.7724C47.4567 10.8189 46.8364 9.90947 45.8167 9.68228V9.63696C46.7033 9.27259 47.2794 8.45444 47.2794 7.59158C47.2794 6.00059 45.994 5.18183 43.8233 5.18183C42.5827 5.18183 41.0759 5.18183 40.1445 5.22776V14.7271C41.6072 14.7271 42.7147 14.7725 43.3361 14.7725C46.2597 14.7725 47.4567 13.2727 47.4567 11.7724Z" fill="#EE2722"/>
</g>
<g id="g110">
<path id="path112" d="M55.6095 14.5005L55.3432 12.5458C54.8561 12.7276 54.1026 12.8636 53.6155 12.8636C51.7988 12.8636 51.0018 11.8182 51.0018 9.95596C51.0018 8.2284 51.8871 7.13774 53.4823 7.13774C54.1026 7.13774 54.7229 7.22776 55.2996 7.40964L55.5653 5.40958C54.9438 5.22831 54.2358 5.18238 53.5265 5.18238C50.2036 5.18238 48.4316 7.22776 48.4316 10.3185C48.4316 12.5004 49.4501 14.8643 53.1277 14.8643C54.0149 14.8643 54.9002 14.7271 55.6095 14.5005Z" fill="#EE2722"/>
</g>
</g>
<g id="g114">
<path id="path116" d="M11.3873 14.2273C11.6984 14.0454 12.0076 13.8176 12.2739 13.5898C12.4506 13.4545 12.6279 13.272 12.7623 13.0901C13.4703 12.2266 13.9133 11.1819 13.9133 9.99939C13.9133 7.36305 11.8303 5.22704 9.2602 5.22704C8.72946 5.22704 8.19693 5.31828 7.75395 5.49955L4.51995 1.81848C5.89427 1.00032 7.53306 0.5 9.2602 0.5C14.4005 0.5 18.521 4.72733 18.521 9.99939C18.521 15.2274 14.4005 19.5 9.2602 19.5C6.73545 19.5 4.4304 18.4534 2.74684 16.7271H14.0918L14.1784 16.6359L2.2149 16.1368L2.12655 16.0449H14.7998L14.844 15.9543L1.5958 15.3174L1.55043 15.2727H6.69068C6.69068 15.2727 9.30558 15.3627 11.3873 14.2273ZM0.842379 13.9995C0.797006 13.8176 0.708052 13.6364 0.620292 13.4545H3.41131L3.89966 13.9995H8.02022L7.13366 14.9542H2.03878C1.90565 14.4539 1.4173 14.0454 0.842379 13.9995ZM0.531338 13.136C0.177311 12.1366 0 11.0901 0 9.99939C0 9.36373 0.0453721 8.77339 0.177311 8.18182L4.65309 9.81873V9.99939C4.65309 11.0901 5.00711 12.1366 5.67218 12.9542H5.71636C5.31696 12.2266 5.09607 11.4097 5.09607 10.5456C5.09607 10.3644 5.09607 10.1813 5.14025 9.99939L9.92587 11.7269V13.136H0.531338ZM9.92587 9.90937L6.2471 7.40898C6.69068 6.86334 7.26679 6.45488 7.93246 6.18175L9.92587 8.22713V9.90937ZM9.92587 11.5457L5.18502 9.68217C5.31696 8.95404 5.6286 8.22713 6.07039 7.63618L9.92587 10.1366V11.5457ZM4.65309 9.49968L0.266265 7.77274C0.531337 6.68207 0.930139 5.68265 1.50625 4.77264L5.45009 7.27242C5.00711 7.9093 4.74085 8.68153 4.65309 9.49968ZM5.67218 6.9999L1.8167 4.36418C2.43699 3.49949 3.19041 2.72787 4.07638 2.13692L7.39992 5.63672C6.73545 5.95455 6.11456 6.40956 5.67218 6.9999Z" fill="#EE2722"/>
</g>
</g>
</g>
</g>
<defs>
<clipPath id="clip0_1888_20524">
<rect width="90" height="19" fill="white" transform="translate(0 0.5)"/>
</clipPath>
</defs>
</svg>
