<svg width="16" height="16" viewBox="0 0 16 16" fill="none" xmlns="http://www.w3.org/2000/svg">
  <path
    d="M12.0007 4.77203C11.9607 4.76537 11.914 4.76537 11.874 4.77203C10.954 4.7387 10.2207 3.98537 10.2207 3.05203C10.2207 2.0987 10.9874 1.33203 11.9407 1.33203C12.894 1.33203 13.6607 2.10537 13.6607 3.05203C13.654 3.98537 12.9207 4.7387 12.0007 4.77203Z"
    stroke="currentColor" strokeLinecap="round" strokeLinejoin="round" />
  <path
    d="M11.3139 9.62547C12.2273 9.77881 13.2339 9.6188 13.9406 9.14547C14.8806 8.5188 14.8806 7.49214 13.9406 6.86547C13.2273 6.39214 12.2073 6.23214 11.2939 6.39214"
    stroke="currentColor" strokeLinecap="round" strokeLinejoin="round" />
  <path
    d="M3.98129 4.77203C4.02129 4.76537 4.06796 4.76537 4.10796 4.77203C5.02796 4.7387 5.76129 3.98537 5.76129 3.05203C5.76129 2.0987 4.99462 1.33203 4.04129 1.33203C3.08796 1.33203 2.32129 2.10537 2.32129 3.05203C2.32796 3.98537 3.06129 4.7387 3.98129 4.77203Z"
    stroke="currentColor" strokeLinecap="round" strokeLinejoin="round" />
  <path
    d="M4.6676 9.62547C3.75427 9.77881 2.7476 9.6188 2.04094 9.14547C1.10094 8.5188 1.10094 7.49214 2.04094 6.86547C2.75427 6.39214 3.77427 6.23214 4.6876 6.39214"
    stroke="currentColor" strokeLinecap="round" strokeLinejoin="round" />
  <path
    d="M8.0007 9.7525C7.9607 9.74584 7.91404 9.74584 7.87404 9.7525C6.95404 9.71917 6.2207 8.96583 6.2207 8.0325C6.2207 7.07917 6.98737 6.3125 7.9407 6.3125C8.89404 6.3125 9.6607 7.08583 9.6607 8.0325C9.65404 8.96583 8.9207 9.72584 8.0007 9.7525Z"
    stroke="currentColor" strokeLinecap="round" strokeLinejoin="round" />
  <path
    d="M6.06047 11.8523C5.12047 12.4789 5.12047 13.5056 6.06047 14.1323C7.12714 14.8456 8.8738 14.8456 9.94047 14.1323C10.8805 13.5056 10.8805 12.4789 9.94047 11.8523C8.88047 11.1456 7.12714 11.1456 6.06047 11.8523Z"
    stroke="currentColor" strokeLinecap="round" strokeLinejoin="round" />
</svg>
  