<svg width="19" height="19" viewBox="0 0 19 19" fill="none" xmlns="http://www.w3.org/2000/svg">
  <path
    d="M9.13974 0.0488281C4.12156 0.0488281 0.0488281 4.12156 0.0488281 9.13974C0.0488281 14.1579 4.12156 18.2306 9.13974 18.2306C14.1579 18.2306 18.2306 14.1579 18.2306 9.13974C18.2306 4.12156 14.1579 0.0488281 9.13974 0.0488281ZM6.41246 5.50337C6.91246 5.50337 7.32156 5.91246 7.32156 6.41246C7.32156 6.91246 6.92156 7.32156 6.41246 7.32156C5.91246 7.32156 5.50337 6.91246 5.50337 6.41246C5.50337 5.91246 5.91246 5.50337 6.41246 5.50337ZM6.89428 12.3488C6.75792 12.4852 6.58519 12.5488 6.41246 12.5488C6.23974 12.5488 6.06701 12.4852 5.93065 12.3488C5.66701 12.0852 5.66701 11.6488 5.93065 11.3852L11.3852 5.93065C11.6488 5.66701 12.0852 5.66701 12.3488 5.93065C12.6125 6.19428 12.6125 6.63065 12.3488 6.89428L6.89428 12.3488ZM11.867 12.7761C11.3579 12.7761 10.9488 12.367 10.9488 11.867C10.9488 11.367 11.3579 10.9579 11.8579 10.9579C12.3579 10.9579 12.767 11.367 12.767 11.867C12.767 12.367 12.367 12.7761 11.867 12.7761Z"
    fill="currentColor" />
</svg>
  