<svg width="20" height="23" viewBox="0 0 20 23" fill="none" xmlns="http://www.w3.org/2000/svg">
  <path
    d="M3.09165 19.5054L3.09479 19.503L4.64883 18.3397L3.09165 19.5054ZM3.09165 19.5054C2.94464 19.6167 2.73065 19.5177 2.73065 19.3216V6.59428V5.68519C2.73065 4.76962 2.93943 4.04661 3.36032 3.55923C3.76506 3.09054 4.46114 2.73065 5.68519 2.73065H6.59428H14.3686M3.09165 19.5054L14.3686 2.73065M14.3686 2.73065C14.1933 3.07194 14.0943 3.45832 14.0943 3.86701V19.3216C14.0943 19.5015 13.8826 19.6155 13.7286 19.5019C13.7284 19.5017 13.7282 19.5015 13.728 19.5014L12.1788 18.3417C11.5483 17.8599 10.658 17.9299 10.1031 18.4849L8.5758 20.0122C8.48764 20.1003 8.33781 20.1004 8.24949 20.0125C8.24937 20.0124 8.24925 20.0123 8.24913 20.0122L6.74149 18.4954L6.74004 18.494C6.17587 17.9298 5.28763 17.861 4.64934 18.3394L14.3686 2.73065ZM6.36701 13.4125H10.4579C11.2072 13.4125 11.8216 12.7981 11.8216 12.0488C11.8216 11.2995 11.2072 10.6852 10.4579 10.6852H6.36701C5.61772 10.6852 5.00337 11.2995 5.00337 12.0488C5.00337 12.7981 5.61772 13.4125 6.36701 13.4125ZM5.68519 9.7761H11.1397C11.889 9.7761 12.5034 9.16175 12.5034 8.41246C12.5034 7.66318 11.889 7.04883 11.1397 7.04883H5.68519C4.93591 7.04883 4.32156 7.66318 4.32156 8.41246C4.32156 9.16175 4.93591 9.7761 5.68519 9.7761Z"
    fill="currentColor" stroke="currentColor" strokeWidth="1.36364" />
  <path
    d="M16.6036 2.04883V3.41246C17.2036 3.41246 17.7764 3.65792 18.1945 4.06701C18.6309 4.51246 18.8673 5.08519 18.8673 5.68519V7.88519C18.8673 8.55792 18.5673 8.86701 17.8855 8.86701H16.14V3.8761C16.14 3.62156 16.3491 3.41246 16.6036 3.41246V2.04883ZM16.6036 2.04883C15.5945 2.04883 14.7764 2.86701 14.7764 3.8761V10.2306H17.8855C19.3218 10.2306 20.2309 9.32156 20.2309 7.88519V5.68519C20.2309 4.68519 19.8218 3.7761 19.1673 3.11246C18.5036 2.45792 17.6036 2.05792 16.6036 2.04883C16.6036 2.04883 16.6127 2.04883 16.6036 2.04883Z"
    fill="currentColor" />
</svg>
  