<svg width="29" height="24" viewBox="0 0 29 24" fill="none" xmlns="http://www.w3.org/2000/svg">
  <path
    d="M3.79412 -0.000244141C1.97483 -0.000244141 0.5 1.48185 0.5 3.3101V10.1425C0.5 11.685 1.54981 12.9811 2.97059 13.3486V5.79286C2.97059 3.96461 4.44542 2.48251 6.26471 2.48251H22.7353C24.5546 2.48251 26.0294 3.96461 26.0294 5.79286V13.3486C27.4502 12.9811 28.5 11.685 28.5 10.1425V3.3101C28.5 1.48185 27.0252 -0.000244141 25.2059 -0.000244141H3.79412Z"
    fill="currentColor" />
  <path
    d="M4.61765 7.44803C4.61765 5.61978 6.09247 4.13769 7.91176 4.13769H21.0882C22.9075 4.13769 24.3824 5.61978 24.3824 7.44803V20.6894C24.3824 22.5177 22.9075 23.9998 21.0882 23.9998H7.91176C6.09247 23.9998 4.61765 22.5177 4.61765 20.6894V7.44803Z"
    fill="currentColor" />
</svg>
  