<svg width="24" height="24" viewBox="0 0 24 24" fill="none" xmlns="http://www.w3.org/2000/svg">
<g id="vuesax/bulk/ticket-discount">
<g id="ticket-discount">
<path id="Vector" opacity="0.4" d="M21.3 10.8404C21.69 10.8404 22 10.5304 22 10.1404V9.21035C22 5.11035 20.75 3.86035 16.65 3.86035H7.35C3.25 3.86035 2 5.11035 2 9.21035V9.68035C2 10.0704 2.31 10.3804 2.7 10.3804C3.6 10.3804 4.33 11.1104 4.33 12.0104C4.33 12.9104 3.6 13.6304 2.7 13.6304C2.31 13.6304 2 13.9404 2 14.3304V14.8004C2 18.9004 3.25 20.1504 7.35 20.1504H16.65C20.75 20.1504 22 18.9004 22 14.8004C22 14.4104 21.69 14.1004 21.3 14.1004C20.4 14.1004 19.67 13.3704 19.67 12.4704C19.67 11.5704 20.4 10.8404 21.3 10.8404Z" fill="#12B76A"/>
<path id="Vector_2" d="M15.0002 15.8799C14.4402 15.8799 13.9902 15.4299 13.9902 14.8799C13.9902 14.3299 14.4402 13.8799 14.9902 13.8799C15.5402 13.8799 15.9902 14.3299 15.9902 14.8799C15.9902 15.4299 15.5602 15.8799 15.0002 15.8799Z" fill="#12B76A"/>
<path id="Vector_3" d="M9.00023 10.8799C8.44023 10.8799 7.99023 10.4299 7.99023 9.87988C7.99023 9.32988 8.44023 8.87988 8.99023 8.87988C9.54023 8.87988 9.99023 9.32988 9.99023 9.87988C9.99023 10.4299 9.56023 10.8799 9.00023 10.8799Z" fill="#12B76A"/>
<path id="Vector_4" d="M8.63031 16.4296C8.44031 16.4296 8.25031 16.3596 8.10031 16.2096C7.81031 15.9196 7.81031 15.4396 8.10031 15.1496L14.8303 8.41965C15.1203 8.12965 15.6003 8.12965 15.8903 8.41965C16.1803 8.70965 16.1803 9.18965 15.8903 9.47965L9.16031 16.2096C9.02031 16.3596 8.82031 16.4296 8.63031 16.4296Z" fill="#12B76A"/>
</g>
</g>
</svg>
