<svg width="35" height="40" viewBox="0 0 35 40" fill="none" xmlns="http://www.w3.org/2000/svg">
<g id="Vector">
<path d="M6.23373 12.6158H8.6504V39.2492H6.23373V12.6158Z" fill="#111111"/>
<path fill-rule="evenodd" clip-rule="evenodd" d="M28.2312 37.896C29.383 37.9208 30.0593 37.621 30.4571 37.2394C30.8548 36.8577 31.1878 36.1892 31.2281 35.0204C31.2689 33.8389 30.9971 32.3032 30.3393 30.4862C29.0264 26.8597 26.3185 22.5061 22.4674 18.3706C18.6564 14.2782 14.3554 11.411 10.6731 9.98434C8.82874 9.26975 7.22268 8.94855 5.96052 8.95795C4.69153 8.96741 3.95114 9.30272 3.549 9.68856C3.17963 10.043 2.88882 10.6384 2.90533 11.7272C2.9223 12.8466 3.272 14.3196 4.02805 16.0943C5.53534 19.6325 8.45564 23.9021 12.3471 28.0809C16.1982 32.2164 20.3282 35.2056 23.8213 36.7401C25.5715 37.509 27.0667 37.8708 28.2312 37.896ZM10.8418 29.5253C18.8349 38.1087 28.254 42.2465 31.88 38.7674C35.506 35.2882 31.9658 25.5096 23.9728 16.9262C15.9797 8.34285 5.75209 4.6814 2.12607 8.16054C-1.49995 11.6397 2.84871 20.9419 10.8418 29.5253Z" fill="white"/>
<path fill-rule="evenodd" clip-rule="evenodd" d="M29.1163 35.6183C30.0852 35.6393 30.4653 35.3864 30.6087 35.2488C30.7521 35.1112 31.0222 34.7402 31.0561 33.7571C31.0907 32.7549 30.8592 31.3597 30.2302 29.6223C28.9763 26.1589 26.3561 21.9236 22.5778 17.8663C18.8596 13.8734 14.6857 11.1034 11.1668 9.74C9.40265 9.05646 7.92763 8.77454 6.83122 8.78271C5.72454 8.79096 5.27352 9.08216 5.12356 9.22604C5.02276 9.32276 4.79059 9.59897 4.80402 10.4844C4.81813 11.4158 5.11598 12.7467 5.84178 14.4505C7.2862 17.8411 10.1239 22.0097 13.9629 26.1322C17.7412 30.1896 21.7596 33.0832 25.0957 34.5488C26.7693 35.2839 28.1285 35.597 29.1163 35.6183ZM11.7049 28.2988C19.698 36.8822 29.1171 41.02 32.7431 37.5408C36.3691 34.0617 32.8289 24.2831 24.8359 15.6997C16.8428 7.11631 6.61518 3.45486 2.98916 6.934C-0.636859 10.4131 3.71181 19.7154 11.7049 28.2988Z" fill="#111111"/>
<path d="M25.7397 10.1659C15.8828 10.2495 15.8132 10.3201 15.7309 20.3255C15.6423 10.3201 15.5728 10.2495 5.71587 10.1659C15.5728 10.076 15.6423 10.0054 15.7309 0C15.8132 10.0054 15.8828 10.076 25.7397 10.1659Z" fill="#F74E28"/>
<path d="M27.1206 6.83356H29.5373V33.6421H27.1206V6.83356Z" fill="#111111"/>
<path fill-rule="evenodd" clip-rule="evenodd" d="M26.0849 6.83356H27.1206V33.6421H26.0849V6.83356Z" fill="white"/>
</g>
</svg>
