<svg width="32" height="32" viewBox="0 0 32 32" fill="none" xmlns="http://www.w3.org/2000/svg">
<rect width="32" height="32" rx="16" fill="#F74E28"/>
<path d="M22.4189 10.7498H19.5023V10.1665C19.5023 9.70238 19.3179 9.25726 18.9897 8.92907C18.6615 8.60088 18.2164 8.4165 17.7523 8.4165H14.2523C13.7882 8.4165 13.343 8.60088 13.0148 8.92907C12.6867 9.25726 12.5023 9.70238 12.5023 10.1665V10.7498H9.58561C9.27619 10.7498 8.97945 10.8728 8.76065 11.0915C8.54186 11.3103 8.41895 11.6071 8.41895 11.9165V21.2498C8.41895 21.5593 8.54186 21.856 8.76065 22.0748C8.97945 22.2936 9.27619 22.4165 9.58561 22.4165H22.4189C22.7284 22.4165 23.0251 22.2936 23.2439 22.0748C23.4627 21.856 23.5856 21.5593 23.5856 21.2498V11.9165C23.5856 11.6071 23.4627 11.3103 23.2439 11.0915C23.0251 10.8728 22.7284 10.7498 22.4189 10.7498ZM13.6689 10.1665C13.6689 10.0118 13.7304 9.86342 13.8398 9.75402C13.9492 9.64463 14.0976 9.58317 14.2523 9.58317H17.7523C17.907 9.58317 18.0554 9.64463 18.1648 9.75402C18.2742 9.86342 18.3356 10.0118 18.3356 10.1665V10.7498H13.6689V10.1665ZM18.3356 11.9165V21.2498H13.6689V11.9165H18.3356ZM9.58561 11.9165H12.5023V21.2498H9.58561V11.9165ZM22.4189 21.2498H19.5023V11.9165H22.4189V21.2498Z" fill="white"/>
</svg>
